STARTFONT 2.1
COMMENT This font was automatically resized by bdfresize-1.5
COMMENT   mag_x = 5/2, mag_y = 5/2, blackness = 4
COMMENT MZ-700 like ASCII font
COMMENT 8x8 dot bitmap font
COMMENT not resize. original size.
FONT -Pet2015bdfascii-Fixed-Medium-R-Normal--20-200-75-75-M-200-ISO10646-1
SIZE 20 75 75
FONTBOUNDINGBOX 20 20 0 0
STARTPROPERTIES 19
FONT_ASCENT 20
FONT_DESCENT 0
DEFAULT_CHAR 32
COPYRIGHT "mieki256"
FONTNAME_REGISTRY ""
FOUNDRY "Pet2015bdfascii"
FAMILY_NAME "Fixed"
WEIGHT_NAME "Medium"
SLANT "R"
SETWIDTH_NAME "Normal"
ADD_STYLE_NAME ""
PIXEL_SIZE 20
POINT_SIZE 200
RESOLUTION_X 75
RESOLUTION_Y 75
SPACING "M"
AVERAGE_WIDTH 200
CHARSET_REGISTRY "ISO10646"
CHARSET_ENCODING "1"
ENDPROPERTIES
CHARS 344
STARTCHAR 20
ENCODING 32
SWIDTH 2400 0
DWIDTH 20 0
BBX 20 20 0 0
BITMAP
000000
000000
000000
000000
000000
000000
000000
000000
000000
000000
000000
000000
000000
000000
000000
000000
000000
000000
000000
000000
ENDCHAR
STARTCHAR 21
ENCODING 33
SWIDTH 2400 0
DWIDTH 20 0
BBX 20 20 0 0
BITMAP
01F800
01F800
01F800
01F800
01F800
01F800
01F800
01F800
01F800
01F800
000000
000000
01F800
01F800
01F800
01F800
01F800
01F800
000000
000000
ENDCHAR
STARTCHAR 22
ENCODING 34
SWIDTH 2400 0
DWIDTH 20 0
BBX 20 20 0 0
BITMAP
3F3E00
3F3E00
3F3E00
3F3E00
3F3E00
000000
000000
000000
000000
000000
000000
000000
000000
000000
000000
000000
000000
000000
000000
000000
ENDCHAR
STARTCHAR 23
ENCODING 35
SWIDTH 2400 0
DWIDTH 20 0
BBX 20 20 0 0
BITMAP
380E00
380E00
FFFFC0
FFFFC0
FFFFC0
380E00
380E00
380E00
380E00
380E00
FFFFC0
FFFFC0
FFFFC0
380E00
380E00
380E00
380E00
380E00
000000
000000
ENDCHAR
STARTCHAR 24
ENCODING 36
SWIDTH 2400 0
DWIDTH 20 0
BBX 20 20 0 0
BITMAP
01C000
01C000
FFFFC0
FFFFC0
FFFFC0
E1C000
E1C000
FFFFC0
FFFFC0
FFFFC0
01C1C0
01C1C0
FFFFC0
FFFFC0
FFFFC0
01C000
01C000
01C000
000000
000000
ENDCHAR
STARTCHAR 25
ENCODING 37
SWIDTH 2400 0
DWIDTH 20 0
BBX 20 20 0 0
BITMAP
FF01C0
FF01C0
FF0FC0
E70E00
E70E00
E73800
E73800
FFFFC0
FFFFC0
FFFFC0
0739C0
0739C0
3F39C0
3839C0
3839C0
E03FC0
E03FC0
E03FC0
000000
000000
ENDCHAR
STARTCHAR 26
ENCODING 38
SWIDTH 2400 0
DWIDTH 20 0
BBX 20 20 0 0
BITMAP
FFF800
FFF800
FFF800
E03800
E03800
E03800
E03800
FFF800
3FC000
3FC000
E039C0
E039C0
E03FC0
E00E00
E00E00
FFF9C0
FFF9C0
FFF9C0
000000
000000
ENDCHAR
STARTCHAR 27
ENCODING 39
SWIDTH 2400 0
DWIDTH 20 0
BBX 20 20 0 0
BITMAP
01F800
01F800
07F800
07C000
07C000
000000
000000
000000
000000
000000
000000
000000
000000
000000
000000
000000
000000
000000
000000
000000
ENDCHAR
STARTCHAR 28
ENCODING 40
SWIDTH 2400 0
DWIDTH 20 0
BBX 20 20 0 0
BITMAP
003800
003800
01F800
01C000
01C000
070000
070000
070000
070000
070000
070000
070000
07C000
01C000
01C000
003800
003800
003800
000000
000000
ENDCHAR
STARTCHAR 29
ENCODING 41
SWIDTH 2400 0
DWIDTH 20 0
BBX 20 20 0 0
BITMAP
070000
070000
07C000
01C000
01C000
003800
003800
003800
003800
003800
003800
003800
01F800
01C000
01C000
070000
070000
070000
000000
000000
ENDCHAR
STARTCHAR 2a
ENCODING 42
SWIDTH 2400 0
DWIDTH 20 0
BBX 20 20 0 0
BITMAP
01C000
01C000
E1C1C0
E1C1C0
E1C1C0
39CE00
39CE00
3FFE00
07F800
07F800
39CE00
39CE00
F9CFC0
E1C1C0
E1C1C0
01C000
01C000
01C000
000000
000000
ENDCHAR
STARTCHAR 2b
ENCODING 43
SWIDTH 2400 0
DWIDTH 20 0
BBX 20 20 0 0
BITMAP
01C000
01C000
01C000
01C000
01C000
01C000
01C000
FFFFC0
FFFFC0
FFFFC0
01C000
01C000
01C000
01C000
01C000
01C000
01C000
01C000
000000
000000
ENDCHAR
STARTCHAR 2c
ENCODING 44
SWIDTH 2400 0
DWIDTH 20 0
BBX 20 20 0 0
BITMAP
000000
000000
000000
000000
000000
000000
000000
000000
000000
000000
01F800
01F800
01F800
01F800
01F800
003800
003800
01F800
01C000
01C000
ENDCHAR
STARTCHAR 2d
ENCODING 45
SWIDTH 2400 0
DWIDTH 20 0
BBX 20 20 0 0
BITMAP
000000
000000
000000
000000
000000
000000
000000
FFFFC0
FFFFC0
FFFFC0
000000
000000
000000
000000
000000
000000
000000
000000
000000
000000
ENDCHAR
STARTCHAR 2e
ENCODING 46
SWIDTH 2400 0
DWIDTH 20 0
BBX 20 20 0 0
BITMAP
000000
000000
000000
000000
000000
000000
000000
000000
000000
000000
000000
000000
01F800
01F800
01F800
01F800
01F800
01F800
000000
000000
ENDCHAR
STARTCHAR 2f
ENCODING 47
SWIDTH 2400 0
DWIDTH 20 0
BBX 20 20 0 0
BITMAP
000000
000000
0001C0
0001C0
0001C0
000E00
000E00
003E00
003800
003800
01C000
01C000
07C000
070000
070000
380000
380000
380000
000000
000000
ENDCHAR
STARTCHAR 30
ENCODING 48
SWIDTH 2400 0
DWIDTH 20 0
BBX 20 20 0 0
BITMAP
3FFE00
3FFE00
FFFFC0
E001C0
E001C0
E039C0
E039C0
E1F9C0
E1C1C0
E1C1C0
E701C0
E701C0
E701C0
E001C0
E001C0
3FFE00
3FFE00
3FFE00
000000
000000
ENDCHAR
STARTCHAR 31
ENCODING 49
SWIDTH 2400 0
DWIDTH 20 0
BBX 20 20 0 0
BITMAP
01C000
01C000
07C000
07C000
07C000
39C000
39C000
39C000
01C000
01C000
01C000
01C000
01C000
01C000
01C000
3FFE00
3FFE00
3FFE00
000000
000000
ENDCHAR
STARTCHAR 32
ENCODING 50
SWIDTH 2400 0
DWIDTH 20 0
BBX 20 20 0 0
BITMAP
3FFE00
3FFE00
FFFFC0
E001C0
E001C0
0001C0
0001C0
3FFFC0
3FFE00
3FFE00
E00000
E00000
E00000
E00000
E00000
FFFFC0
FFFFC0
FFFFC0
000000
000000
ENDCHAR
STARTCHAR 33
ENCODING 51
SWIDTH 2400 0
DWIDTH 20 0
BBX 20 20 0 0
BITMAP
3FFE00
3FFE00
FFFFC0
E001C0
E001C0
0001C0
0001C0
01FFC0
01FE00
01FE00
0001C0
0001C0
E001C0
E001C0
E001C0
3FFE00
3FFE00
3FFE00
000000
000000
ENDCHAR
STARTCHAR 34
ENCODING 52
SWIDTH 2400 0
DWIDTH 20 0
BBX 20 20 0 0
BITMAP
000E00
000E00
003E00
003E00
003E00
01CE00
01CE00
07CE00
070E00
070E00
380E00
380E00
FFFFC0
FFFFC0
FFFFC0
000E00
000E00
000E00
000000
000000
ENDCHAR
STARTCHAR 35
ENCODING 53
SWIDTH 2400 0
DWIDTH 20 0
BBX 20 20 0 0
BITMAP
FFFFC0
FFFFC0
FFFFC0
E00000
E00000
E00000
E00000
FFFE00
FFFE00
FFFE00
0001C0
0001C0
E001C0
E001C0
E001C0
3FFE00
3FFE00
3FFE00
000000
000000
ENDCHAR
STARTCHAR 36
ENCODING 54
SWIDTH 2400 0
DWIDTH 20 0
BBX 20 20 0 0
BITMAP
3FFE00
3FFE00
FFFE00
E00000
E00000
E00000
E00000
FFFE00
FFFE00
FFFE00
E001C0
E001C0
E001C0
E001C0
E001C0
3FFE00
3FFE00
3FFE00
000000
000000
ENDCHAR
STARTCHAR 37
ENCODING 55
SWIDTH 2400 0
DWIDTH 20 0
BBX 20 20 0 0
BITMAP
FFFFC0
FFFFC0
FFFFC0
0001C0
0001C0
000E00
000E00
003E00
003800
003800
01C000
01C000
01C000
01C000
01C000
01C000
01C000
01C000
000000
000000
ENDCHAR
STARTCHAR 38
ENCODING 56
SWIDTH 2400 0
DWIDTH 20 0
BBX 20 20 0 0
BITMAP
3FFE00
3FFE00
FFFFC0
E001C0
E001C0
E001C0
E001C0
FFFFC0
3FFE00
3FFE00
E001C0
E001C0
E001C0
E001C0
E001C0
3FFE00
3FFE00
3FFE00
000000
000000
ENDCHAR
STARTCHAR 39
ENCODING 57
SWIDTH 2400 0
DWIDTH 20 0
BBX 20 20 0 0
BITMAP
3FFE00
3FFE00
FFFFC0
E001C0
E001C0
E001C0
E001C0
FFFFC0
3FFFC0
3FFFC0
0001C0
0001C0
0001C0
0001C0
0001C0
3FFE00
3FFE00
3FFE00
000000
000000
ENDCHAR
STARTCHAR 3a
ENCODING 58
SWIDTH 2400 0
DWIDTH 20 0
BBX 20 20 0 0
BITMAP
000000
000000
01F800
01F800
01F800
01F800
01F800
01F800
000000
000000
01F800
01F800
01F800
01F800
01F800
000000
000000
000000
000000
000000
ENDCHAR
STARTCHAR 3b
ENCODING 59
SWIDTH 2400 0
DWIDTH 20 0
BBX 20 20 0 0
BITMAP
000000
000000
01F800
01F800
01F800
01F800
01F800
01F800
000000
000000
01F800
01F800
01F800
01F800
01F800
003800
003800
01F800
01C000
01C000
ENDCHAR
STARTCHAR 3c
ENCODING 60
SWIDTH 2400 0
DWIDTH 20 0
BBX 20 20 0 0
BITMAP
000E00
000E00
003E00
003800
003800
01C000
01C000
07C000
070000
070000
01C000
01C000
01F800
003800
003800
000E00
000E00
000E00
000000
000000
ENDCHAR
STARTCHAR 3d
ENCODING 61
SWIDTH 2400 0
DWIDTH 20 0
BBX 20 20 0 0
BITMAP
000000
000000
000000
000000
000000
FFFFC0
FFFFC0
FFFFC0
000000
000000
FFFFC0
FFFFC0
FFFFC0
000000
000000
000000
000000
000000
000000
000000
ENDCHAR
STARTCHAR 3e
ENCODING 62
SWIDTH 2400 0
DWIDTH 20 0
BBX 20 20 0 0
BITMAP
070000
070000
07C000
01C000
01C000
003800
003800
003E00
000E00
000E00
003800
003800
01F800
01C000
01C000
070000
070000
070000
000000
000000
ENDCHAR
STARTCHAR 3f
ENCODING 63
SWIDTH 2400 0
DWIDTH 20 0
BBX 20 20 0 0
BITMAP
3FFE00
3FFE00
FFFFC0
F80FC0
F80FC0
F80FC0
F80FC0
F83FC0
003E00
003E00
01F800
01F800
01F800
000000
000000
01F800
01F800
01F800
000000
000000
ENDCHAR
STARTCHAR 40
ENCODING 64
SWIDTH 2400 0
DWIDTH 20 0
BBX 20 20 0 0
BITMAP
3FFE00
3FFE00
FFFFC0
E001C0
E001C0
E7F9C0
E7F9C0
E7F9C0
E739C0
E739C0
E7FE00
E7FE00
E7FE00
E00000
E00000
3FFFC0
3FFFC0
3FFFC0
000000
000000
ENDCHAR
STARTCHAR 41
ENCODING 65
SWIDTH 2400 0
DWIDTH 20 0
BBX 20 20 0 0
BITMAP
3FFE00
3FFE00
FFFFC0
E001C0
E001C0
E001C0
E001C0
E001C0
E001C0
E001C0
FFFFC0
FFFFC0
FFFFC0
E001C0
E001C0
E001C0
E001C0
E001C0
000000
000000
ENDCHAR
STARTCHAR 42
ENCODING 66
SWIDTH 2400 0
DWIDTH 20 0
BBX 20 20 0 0
BITMAP
FFFE00
FFFE00
FFFFC0
E001C0
E001C0
E001C0
E001C0
FFFFC0
FFFE00
FFFE00
E001C0
E001C0
E001C0
E001C0
E001C0
FFFE00
FFFE00
FFFE00
000000
000000
ENDCHAR
STARTCHAR 43
ENCODING 67
SWIDTH 2400 0
DWIDTH 20 0
BBX 20 20 0 0
BITMAP
3FFE00
3FFE00
FFFFC0
E001C0
E001C0
E00000
E00000
E00000
E00000
E00000
E00000
E00000
E001C0
E001C0
E001C0
3FFE00
3FFE00
3FFE00
000000
000000
ENDCHAR
STARTCHAR 44
ENCODING 68
SWIDTH 2400 0
DWIDTH 20 0
BBX 20 20 0 0
BITMAP
FFFE00
FFFE00
FFFFC0
E001C0
E001C0
E001C0
E001C0
E001C0
E001C0
E001C0
E001C0
E001C0
E001C0
E001C0
E001C0
FFFE00
FFFE00
FFFE00
000000
000000
ENDCHAR
STARTCHAR 45
ENCODING 69
SWIDTH 2400 0
DWIDTH 20 0
BBX 20 20 0 0
BITMAP
FFFFC0
FFFFC0
FFFFC0
E00000
E00000
E00000
E00000
FFFE00
FFFE00
FFFE00
E00000
E00000
E00000
E00000
E00000
FFFFC0
FFFFC0
FFFFC0
000000
000000
ENDCHAR
STARTCHAR 46
ENCODING 70
SWIDTH 2400 0
DWIDTH 20 0
BBX 20 20 0 0
BITMAP
FFFFC0
FFFFC0
FFFFC0
E00000
E00000
E00000
E00000
FFFE00
FFFE00
FFFE00
E00000
E00000
E00000
E00000
E00000
E00000
E00000
E00000
000000
000000
ENDCHAR
STARTCHAR 47
ENCODING 71
SWIDTH 2400 0
DWIDTH 20 0
BBX 20 20 0 0
BITMAP
3FFE00
3FFE00
FFFFC0
E001C0
E001C0
E00000
E00000
E03FC0
E03FC0
E03FC0
E001C0
E001C0
E001C0
E001C0
E001C0
3FFE00
3FFE00
3FFE00
000000
000000
ENDCHAR
STARTCHAR 48
ENCODING 72
SWIDTH 2400 0
DWIDTH 20 0
BBX 20 20 0 0
BITMAP
E001C0
E001C0
E001C0
E001C0
E001C0
E001C0
E001C0
FFFFC0
FFFFC0
FFFFC0
E001C0
E001C0
E001C0
E001C0
E001C0
E001C0
E001C0
E001C0
000000
000000
ENDCHAR
STARTCHAR 49
ENCODING 73
SWIDTH 2400 0
DWIDTH 20 0
BBX 20 20 0 0
BITMAP
07F800
07F800
07F800
01C000
01C000
01C000
01C000
01C000
01C000
01C000
01C000
01C000
01C000
01C000
01C000
07F800
07F800
07F800
000000
000000
ENDCHAR
STARTCHAR 4a
ENCODING 74
SWIDTH 2400 0
DWIDTH 20 0
BBX 20 20 0 0
BITMAP
003FC0
003FC0
003FC0
000E00
000E00
000E00
000E00
000E00
000E00
000E00
000E00
000E00
E00E00
E00E00
E00E00
3FF800
3FF800
3FF800
000000
000000
ENDCHAR
STARTCHAR 4b
ENCODING 75
SWIDTH 2400 0
DWIDTH 20 0
BBX 20 20 0 0
BITMAP
E001C0
E001C0
E00FC0
E00E00
E00E00
E03800
E03800
FFF800
FFC000
FFC000
E03800
E03800
E03E00
E00E00
E00E00
E001C0
E001C0
E001C0
000000
000000
ENDCHAR
STARTCHAR 4c
ENCODING 76
SWIDTH 2400 0
DWIDTH 20 0
BBX 20 20 0 0
BITMAP
E00000
E00000
E00000
E00000
E00000
E00000
E00000
E00000
E00000
E00000
E00000
E00000
E00000
E00000
E00000
FFFFC0
FFFFC0
FFFFC0
000000
000000
ENDCHAR
STARTCHAR 4d
ENCODING 77
SWIDTH 2400 0
DWIDTH 20 0
BBX 20 20 0 0
BITMAP
E001C0
E001C0
F80FC0
F80FC0
F80FC0
E739C0
E739C0
E7F9C0
E1C1C0
E1C1C0
E001C0
E001C0
E001C0
E001C0
E001C0
E001C0
E001C0
E001C0
000000
000000
ENDCHAR
STARTCHAR 4e
ENCODING 78
SWIDTH 2400 0
DWIDTH 20 0
BBX 20 20 0 0
BITMAP
E001C0
E001C0
F801C0
F801C0
F801C0
E701C0
E701C0
E7C1C0
E1C1C0
E1C1C0
E039C0
E039C0
E03FC0
E00FC0
E00FC0
E001C0
E001C0
E001C0
000000
000000
ENDCHAR
STARTCHAR 4f
ENCODING 79
SWIDTH 2400 0
DWIDTH 20 0
BBX 20 20 0 0
BITMAP
3FFE00
3FFE00
FFFFC0
E001C0
E001C0
E001C0
E001C0
E001C0
E001C0
E001C0
E001C0
E001C0
E001C0
E001C0
E001C0
3FFE00
3FFE00
3FFE00
000000
000000
ENDCHAR
STARTCHAR 50
ENCODING 80
SWIDTH 2400 0
DWIDTH 20 0
BBX 20 20 0 0
BITMAP
FFFE00
FFFE00
FFFFC0
E001C0
E001C0
E001C0
E001C0
FFFFC0
FFFE00
FFFE00
E00000
E00000
E00000
E00000
E00000
E00000
E00000
E00000
000000
000000
ENDCHAR
STARTCHAR 51
ENCODING 81
SWIDTH 2400 0
DWIDTH 20 0
BBX 20 20 0 0
BITMAP
3FFE00
3FFE00
FFFFC0
E001C0
E001C0
E001C0
E001C0
E001C0
E001C0
E001C0
E039C0
E039C0
E03FC0
E00E00
E00E00
3FF9C0
3FF9C0
3FF9C0
000000
000000
ENDCHAR
STARTCHAR 52
ENCODING 82
SWIDTH 2400 0
DWIDTH 20 0
BBX 20 20 0 0
BITMAP
FFFE00
FFFE00
FFFFC0
E001C0
E001C0
E001C0
E001C0
FFFFC0
FFFE00
FFFE00
E03800
E03800
E03E00
E00E00
E00E00
E001C0
E001C0
E001C0
000000
000000
ENDCHAR
STARTCHAR 53
ENCODING 83
SWIDTH 2400 0
DWIDTH 20 0
BBX 20 20 0 0
BITMAP
3FFE00
3FFE00
FFFFC0
E001C0
E001C0
E00000
E00000
FFFE00
3FFE00
3FFE00
0001C0
0001C0
E001C0
E001C0
E001C0
3FFE00
3FFE00
3FFE00
000000
000000
ENDCHAR
STARTCHAR 54
ENCODING 84
SWIDTH 2400 0
DWIDTH 20 0
BBX 20 20 0 0
BITMAP
FFFFC0
FFFFC0
FFFFC0
01C000
01C000
01C000
01C000
01C000
01C000
01C000
01C000
01C000
01C000
01C000
01C000
01C000
01C000
01C000
000000
000000
ENDCHAR
STARTCHAR 55
ENCODING 85
SWIDTH 2400 0
DWIDTH 20 0
BBX 20 20 0 0
BITMAP
E001C0
E001C0
E001C0
E001C0
E001C0
E001C0
E001C0
E001C0
E001C0
E001C0
E001C0
E001C0
E001C0
E001C0
E001C0
3FFE00
3FFE00
3FFE00
000000
000000
ENDCHAR
STARTCHAR 56
ENCODING 86
SWIDTH 2400 0
DWIDTH 20 0
BBX 20 20 0 0
BITMAP
E001C0
E001C0
E001C0
E001C0
E001C0
380E00
380E00
380E00
380E00
380E00
073800
073800
073800
073800
073800
01C000
01C000
01C000
000000
000000
ENDCHAR
STARTCHAR 57
ENCODING 87
SWIDTH 2400 0
DWIDTH 20 0
BBX 20 20 0 0
BITMAP
E001C0
E001C0
E001C0
E001C0
E001C0
E001C0
E001C0
E1C1C0
E1C1C0
E1C1C0
E739C0
E739C0
FF3FC0
F80FC0
F80FC0
E001C0
E001C0
E001C0
000000
000000
ENDCHAR
STARTCHAR 58
ENCODING 88
SWIDTH 2400 0
DWIDTH 20 0
BBX 20 20 0 0
BITMAP
E001C0
E001C0
F80FC0
380E00
380E00
073800
073800
07F800
01C000
01C000
073800
073800
3F3E00
380E00
380E00
E001C0
E001C0
E001C0
000000
000000
ENDCHAR
STARTCHAR 59
ENCODING 89
SWIDTH 2400 0
DWIDTH 20 0
BBX 20 20 0 0
BITMAP
E001C0
E001C0
E001C0
E001C0
E001C0
380E00
380E00
3F3E00
073800
073800
01C000
01C000
01C000
01C000
01C000
01C000
01C000
01C000
000000
000000
ENDCHAR
STARTCHAR 5a
ENCODING 90
SWIDTH 2400 0
DWIDTH 20 0
BBX 20 20 0 0
BITMAP
FFFFC0
FFFFC0
FFFFC0
000E00
000E00
003800
003800
01F800
01C000
01C000
070000
070000
3F0000
380000
380000
FFFFC0
FFFFC0
FFFFC0
000000
000000
ENDCHAR
STARTCHAR 5b
ENCODING 91
SWIDTH 2400 0
DWIDTH 20 0
BBX 20 20 0 0
BITMAP
07F800
07F800
07F800
070000
070000
070000
070000
070000
070000
070000
070000
070000
070000
070000
070000
07F800
07F800
07F800
000000
000000
ENDCHAR
STARTCHAR 5c
ENCODING 92
SWIDTH 2400 0
DWIDTH 20 0
BBX 20 20 0 0
BITMAP
000000
000000
380000
380000
380000
070000
070000
07C000
01C000
01C000
003800
003800
003E00
000E00
000E00
0001C0
0001C0
0001C0
000000
000000
ENDCHAR
STARTCHAR 5d
ENCODING 93
SWIDTH 2400 0
DWIDTH 20 0
BBX 20 20 0 0
BITMAP
07F800
07F800
07F800
003800
003800
003800
003800
003800
003800
003800
003800
003800
003800
003800
003800
07F800
07F800
07F800
000000
000000
ENDCHAR
STARTCHAR 5f
ENCODING 95
SWIDTH 2400 0
DWIDTH 20 0
BBX 20 20 0 0
BITMAP
000000
000000
000000
000000
000000
000000
000000
000000
000000
000000
000000
000000
000000
000000
000000
000000
000000
FFFFF0
FFFFF0
FFFFF0
ENDCHAR
STARTCHAR 61
ENCODING 97
SWIDTH 2400 0
DWIDTH 20 0
BBX 20 20 0 0
BITMAP
000000
000000
000000
000000
000000
3FFE00
3FFE00
3FFFC0
0001C0
0001C0
3FFFC0
3FFFC0
FFFFC0
E001C0
E001C0
3FFFC0
3FFFC0
3FFFC0
000000
000000
ENDCHAR
STARTCHAR 62
ENCODING 98
SWIDTH 2400 0
DWIDTH 20 0
BBX 20 20 0 0
BITMAP
E00000
E00000
E00000
E00000
E00000
E00000
E00000
FFFE00
FFFE00
FFFE00
E001C0
E001C0
E001C0
E001C0
E001C0
FFFE00
FFFE00
FFFE00
000000
000000
ENDCHAR
STARTCHAR 63
ENCODING 99
SWIDTH 2400 0
DWIDTH 20 0
BBX 20 20 0 0
BITMAP
000000
000000
000000
000000
000000
000000
000000
3FFFC0
3FFFC0
3FFFC0
E00000
E00000
E00000
E00000
E00000
3FFFC0
3FFFC0
3FFFC0
000000
000000
ENDCHAR
STARTCHAR 64
ENCODING 100
SWIDTH 2400 0
DWIDTH 20 0
BBX 20 20 0 0
BITMAP
0001C0
0001C0
0001C0
0001C0
0001C0
0001C0
0001C0
3FFFC0
3FFFC0
3FFFC0
E001C0
E001C0
E001C0
E001C0
E001C0
3FFFC0
3FFFC0
3FFFC0
000000
000000
ENDCHAR
STARTCHAR 65
ENCODING 101
SWIDTH 2400 0
DWIDTH 20 0
BBX 20 20 0 0
BITMAP
000000
000000
000000
000000
000000
3FFE00
3FFE00
FFFFC0
E001C0
E001C0
FFFFC0
FFFFC0
FFFFC0
E00000
E00000
3FFE00
3FFE00
3FFE00
000000
000000
ENDCHAR
STARTCHAR 66
ENCODING 102
SWIDTH 2400 0
DWIDTH 20 0
BBX 20 20 0 0
BITMAP
003FC0
003FC0
01FFC0
01C000
01C000
01C000
01C000
FFFFC0
FFFFC0
FFFFC0
01C000
01C000
01C000
01C000
01C000
01C000
01C000
01C000
000000
000000
ENDCHAR
STARTCHAR 67
ENCODING 103
SWIDTH 2400 0
DWIDTH 20 0
BBX 20 20 0 0
BITMAP
000000
000000
000000
000000
000000
3FFFC0
3FFFC0
FFFFC0
E001C0
E001C0
E001C0
E001C0
FFFFC0
3FFFC0
3FFFC0
0001C0
0001C0
3FFFC0
3FFE00
3FFE00
ENDCHAR
STARTCHAR 68
ENCODING 104
SWIDTH 2400 0
DWIDTH 20 0
BBX 20 20 0 0
BITMAP
E00000
E00000
E00000
E00000
E00000
E00000
E00000
FFFE00
FFFE00
FFFE00
E001C0
E001C0
E001C0
E001C0
E001C0
E001C0
E001C0
E001C0
000000
000000
ENDCHAR
STARTCHAR 69
ENCODING 105
SWIDTH 2400 0
DWIDTH 20 0
BBX 20 20 0 0
BITMAP
01C000
01C000
01C000
000000
000000
000000
000000
01C000
01C000
01C000
01C000
01C000
01C000
01C000
01C000
01C000
01C000
01C000
000000
000000
ENDCHAR
STARTCHAR 6a
ENCODING 106
SWIDTH 2400 0
DWIDTH 20 0
BBX 20 20 0 0
BITMAP
0001C0
0001C0
0001C0
000000
000000
0001C0
0001C0
0001C0
0001C0
0001C0
0001C0
0001C0
0001C0
0001C0
0001C0
E001C0
E001C0
FFFFC0
3FFE00
3FFE00
ENDCHAR
STARTCHAR 6b
ENCODING 107
SWIDTH 2400 0
DWIDTH 20 0
BBX 20 20 0 0
BITMAP
E00000
E00000
E00000
E00000
E00000
E00E00
E00E00
E03E00
E03800
E03800
FFC000
FFC000
FFF800
E03800
E03800
E00E00
E00E00
E00E00
000000
000000
ENDCHAR
STARTCHAR 6c
ENCODING 108
SWIDTH 2400 0
DWIDTH 20 0
BBX 20 20 0 0
BITMAP
07C000
07C000
07C000
01C000
01C000
01C000
01C000
01C000
01C000
01C000
01C000
01C000
01C000
01C000
01C000
3FFE00
3FFE00
3FFE00
000000
000000
ENDCHAR
STARTCHAR 6d
ENCODING 109
SWIDTH 2400 0
DWIDTH 20 0
BBX 20 20 0 0
BITMAP
000000
000000
000000
000000
000000
FF3E00
FF3E00
FFFFC0
E1C1C0
E1C1C0
E1C1C0
E1C1C0
E1C1C0
E1C1C0
E1C1C0
E1C1C0
E1C1C0
E1C1C0
000000
000000
ENDCHAR
STARTCHAR 6e
ENCODING 110
SWIDTH 2400 0
DWIDTH 20 0
BBX 20 20 0 0
BITMAP
000000
000000
000000
000000
000000
E7FE00
E7FE00
FFFFC0
F801C0
F801C0
E001C0
E001C0
E001C0
E001C0
E001C0
E001C0
E001C0
E001C0
000000
000000
ENDCHAR
STARTCHAR 6f
ENCODING 111
SWIDTH 2400 0
DWIDTH 20 0
BBX 20 20 0 0
BITMAP
000000
000000
000000
000000
000000
3FFE00
3FFE00
FFFFC0
E001C0
E001C0
E001C0
E001C0
E001C0
E001C0
E001C0
3FFE00
3FFE00
3FFE00
000000
000000
ENDCHAR
STARTCHAR 70
ENCODING 112
SWIDTH 2400 0
DWIDTH 20 0
BBX 20 20 0 0
BITMAP
000000
000000
000000
000000
000000
FFFE00
FFFE00
FFFFC0
E001C0
E001C0
E001C0
E001C0
FFFFC0
FFFE00
FFFE00
E00000
E00000
E00000
E00000
E00000
ENDCHAR
STARTCHAR 71
ENCODING 113
SWIDTH 2400 0
DWIDTH 20 0
BBX 20 20 0 0
BITMAP
000000
000000
000000
000000
000000
3FFFC0
3FFFC0
FFFFC0
E001C0
E001C0
E001C0
E001C0
FFFFC0
3FFFC0
3FFFC0
0001C0
0001C0
0001C0
0001C0
0001C0
ENDCHAR
STARTCHAR 72
ENCODING 114
SWIDTH 2400 0
DWIDTH 20 0
BBX 20 20 0 0
BITMAP
000000
000000
000000
000000
000000
383FC0
383FC0
39FFC0
39C000
39C000
3F0000
3F0000
3F0000
380000
380000
380000
380000
380000
000000
000000
ENDCHAR
STARTCHAR 73
ENCODING 115
SWIDTH 2400 0
DWIDTH 20 0
BBX 20 20 0 0
BITMAP
000000
000000
000000
000000
000000
3FFFC0
3FFFC0
FFFFC0
E00000
E00000
3FFE00
3FFE00
3FFFC0
0001C0
0001C0
FFFE00
FFFE00
FFFE00
000000
000000
ENDCHAR
STARTCHAR 74
ENCODING 116
SWIDTH 2400 0
DWIDTH 20 0
BBX 20 20 0 0
BITMAP
070000
070000
070000
070000
070000
FFFE00
FFFE00
FFFE00
070000
070000
070000
070000
070000
070000
070000
01FFC0
01FFC0
01FFC0
000000
000000
ENDCHAR
STARTCHAR 75
ENCODING 117
SWIDTH 2400 0
DWIDTH 20 0
BBX 20 20 0 0
BITMAP
000000
000000
000000
000000
000000
E001C0
E001C0
E001C0
E001C0
E001C0
E001C0
E001C0
E001C0
E001C0
E001C0
3FFE00
3FFE00
3FFE00
000000
000000
ENDCHAR
STARTCHAR 76
ENCODING 118
SWIDTH 2400 0
DWIDTH 20 0
BBX 20 20 0 0
BITMAP
000000
000000
000000
000000
000000
E001C0
E001C0
E001C0
E001C0
E001C0
380E00
380E00
3F3E00
073800
073800
01C000
01C000
01C000
000000
000000
ENDCHAR
STARTCHAR 77
ENCODING 119
SWIDTH 2400 0
DWIDTH 20 0
BBX 20 20 0 0
BITMAP
000000
000000
000000
000000
000000
E001C0
E001C0
E001C0
E001C0
E001C0
E1C1C0
E1C1C0
E7F9C0
E739C0
E739C0
380E00
380E00
380E00
000000
000000
ENDCHAR
STARTCHAR 78
ENCODING 120
SWIDTH 2400 0
DWIDTH 20 0
BBX 20 20 0 0
BITMAP
000000
000000
000000
000000
000000
E001C0
E001C0
F80FC0
380E00
380E00
07F800
07F800
3FFE00
380E00
380E00
E001C0
E001C0
E001C0
000000
000000
ENDCHAR
STARTCHAR 79
ENCODING 121
SWIDTH 2400 0
DWIDTH 20 0
BBX 20 20 0 0
BITMAP
000000
000000
000000
000000
000000
E001C0
E001C0
E001C0
E001C0
E001C0
E001C0
E001C0
FFFFC0
3FFFC0
3FFFC0
0001C0
0001C0
3FFFC0
3FFE00
3FFE00
ENDCHAR
STARTCHAR 7a
ENCODING 122
SWIDTH 2400 0
DWIDTH 20 0
BBX 20 20 0 0
BITMAP
000000
000000
000000
000000
000000
FFFFC0
FFFFC0
FFFFC0
000E00
000E00
07F800
07F800
3FF800
380000
380000
FFFFC0
FFFFC0
FFFFC0
000000
000000
ENDCHAR
STARTCHAR 7c
ENCODING 124
SWIDTH 2400 0
DWIDTH 20 0
BBX 20 20 0 0
BITMAP
003800
003800
003800
003800
003800
003800
003800
003800
003800
003800
003800
003800
003800
003800
003800
003800
003800
003800
003800
003800
ENDCHAR
STARTCHAR 7e
ENCODING 126
SWIDTH 2400 0
DWIDTH 20 0
BBX 20 20 0 0
BITMAP
000000
000000
000000
000000
000000
3F0000
3F0000
FFC000
E1C000
E1C000
003870
003870
003FF0
000FC0
000FC0
000000
000000
000000
000000
000000
ENDCHAR
STARTCHAR d7
ENCODING 215
SWIDTH 2400 0
DWIDTH 20 0
BBX 20 20 0 0
BITMAP
E00070
E00070
F801F0
3801C0
3801C0
070E00
070E00
07FE00
01F800
01F800
01F800
01F800
07FE00
070E00
070E00
3801C0
3801C0
F801F0
E00070
E00070
ENDCHAR
STARTCHAR 3c0
ENCODING 960
SWIDTH 2400 0
DWIDTH 20 0
BBX 20 20 0 0
BITMAP
000000
000000
0001C0
0001C0
0001C0
0001C0
0001C0
3FFFC0
3FFE00
3FFE00
E73800
E73800
E73800
E73800
E73800
073800
073800
073800
000000
000000
ENDCHAR
STARTCHAR 2026
ENCODING 8230
SWIDTH 2400 0
DWIDTH 20 0
BBX 20 20 0 0
BITMAP
000000
000000
000000
000000
000000
000000
000000
3F0000
3F0000
3F0000
E1C000
E1C000
E1C000
E1C000
E1C000
3F0000
3F0000
3F0000
000000
000000
ENDCHAR
STARTCHAR 2190
ENCODING 8592
SWIDTH 2400 0
DWIDTH 20 0
BBX 20 20 0 0
BITMAP
000000
000000
003800
003800
003800
01F800
01F800
07F800
07F800
07F800
3FFFF0
3FFFF0
3FFFF0
07F800
07F800
01F800
01F800
01F800
003800
003800
ENDCHAR
STARTCHAR 2191
ENCODING 8593
SWIDTH 2400 0
DWIDTH 20 0
BBX 20 20 0 0
BITMAP
000000
000000
003800
003800
003800
01FE00
01FE00
07FFC0
07FFC0
07FFC0
3FFFF0
3FFFF0
3FFFF0
003800
003800
003800
003800
003800
003800
003800
ENDCHAR
STARTCHAR 2192
ENCODING 8594
SWIDTH 2400 0
DWIDTH 20 0
BBX 20 20 0 0
BITMAP
000000
000000
01C000
01C000
01C000
01F800
01F800
01FE00
01FE00
01FE00
FFFFC0
FFFFC0
FFFFC0
01FE00
01FE00
01F800
01F800
01F800
01C000
01C000
ENDCHAR
STARTCHAR 2193
ENCODING 8595
SWIDTH 2400 0
DWIDTH 20 0
BBX 20 20 0 0
BITMAP
003800
003800
003800
003800
003800
003800
003800
3FFFF0
3FFFF0
3FFFF0
07FFC0
07FFC0
07FFC0
01FE00
01FE00
003800
003800
003800
000000
000000
ENDCHAR
STARTCHAR 21bf
ENCODING 8639
SWIDTH 2400 0
DWIDTH 20 0
BBX 20 20 0 0
BITMAP
0001C0
0001C0
0001C0
0001C0
0001C0
0001C0
0001C0
0001C0
0001C0
0001C0
0001C0
0001C0
0001C0
0001C0
0001C0
000FF0
000FF0
000FF0
0001C0
0001C0
ENDCHAR
STARTCHAR 21c0
ENCODING 8640
SWIDTH 2400 0
DWIDTH 20 0
BBX 20 20 0 0
BITMAP
000000
000000
000000
000000
000000
000000
000000
000000
000000
000000
000000
000000
0001C0
0001C0
0001C0
FFFFF0
FFFFF0
FFFFF0
0001C0
0001C0
ENDCHAR
STARTCHAR 21d6
ENCODING 8662
SWIDTH 2400 0
DWIDTH 20 0
BBX 20 20 0 0
BITMAP
070000
070000
07C000
01C000
01C000
E03800
E03800
F83E00
380E00
380E00
0701C0
0701C0
07C1F0
01C070
01C070
003800
003800
003E00
000E00
000E00
ENDCHAR
STARTCHAR 21d7
ENCODING 8663
SWIDTH 2400 0
DWIDTH 20 0
BBX 20 20 0 0
BITMAP
000E00
000E00
003E00
003800
003800
01C070
01C070
07C1F0
0701C0
0701C0
380E00
380E00
F83E00
E03800
E03800
01C000
01C000
07C000
070000
070000
ENDCHAR
STARTCHAR 21e6
ENCODING 8678
SWIDTH 2400 0
DWIDTH 20 0
BBX 20 20 0 0
BITMAP
FFFFF0
FFFFF0
FFFFF0
FFCFF0
FFCFF0
FF0FF0
FF0FF0
FF0FF0
F80FF0
F80FF0
E00000
E00000
F80FF0
F80FF0
F80FF0
FF0FF0
FF0FF0
FFCFF0
FFCFF0
FFCFF0
ENDCHAR
STARTCHAR 21e7
ENCODING 8679
SWIDTH 2400 0
DWIDTH 20 0
BBX 20 20 0 0
BITMAP
FFFFF0
FFFFF0
FFFFF0
FFCFF0
FFCFF0
FF01F0
FF01F0
FF01F0
F80070
F80070
E00000
E00000
FFCFF0
FFCFF0
FFCFF0
FFCFF0
FFCFF0
FFCFF0
FFCFF0
FFCFF0
ENDCHAR
STARTCHAR 21e8
ENCODING 8680
SWIDTH 2400 0
DWIDTH 20 0
BBX 20 20 0 0
BITMAP
FFFFF0
FFFFF0
FFFFF0
FF3FF0
FF3FF0
FF0FF0
FF0FF0
FF0FF0
FF01F0
FF01F0
000070
000070
FF01F0
FF01F0
FF01F0
FF0FF0
FF0FF0
FF3FF0
FF3FF0
FF3FF0
ENDCHAR
STARTCHAR 21e9
ENCODING 8681
SWIDTH 2400 0
DWIDTH 20 0
BBX 20 20 0 0
BITMAP
FFCFF0
FFCFF0
FFCFF0
FFCFF0
FFCFF0
FFCFF0
FFCFF0
FFCFF0
E00000
E00000
F80070
F80070
FF01F0
FF01F0
FF01F0
FFCFF0
FFCFF0
FFFFF0
FFFFF0
FFFFF0
ENDCHAR
STARTCHAR 22a5
ENCODING 8869
SWIDTH 2400 0
DWIDTH 20 0
BBX 20 20 0 0
BITMAP
0001C0
0001C0
0001C0
0001C0
0001C0
0001C0
0001C0
0001C0
0001C0
0001C0
0001C0
0001C0
0001C0
0001C0
0001C0
FFFFF0
FFFFF0
FFFFF0
0001C0
0001C0
ENDCHAR
STARTCHAR 2460
ENCODING 9312
SWIDTH 2400 0
DWIDTH 20 0
BBX 20 20 0 0
BITMAP
FFC000
FFC000
FFC000
FFC000
FFC000
FFC000
FFC000
FFC000
FFC000
FFC000
000000
000000
000000
000000
000000
000000
000000
000000
000000
000000
ENDCHAR
STARTCHAR 2461
ENCODING 9313
SWIDTH 2400 0
DWIDTH 20 0
BBX 20 20 0 0
BITMAP
003FF0
003FF0
003FF0
003FF0
003FF0
003FF0
003FF0
003FF0
003FF0
003FF0
000000
000000
000000
000000
000000
000000
000000
000000
000000
000000
ENDCHAR
STARTCHAR 2462
ENCODING 9314
SWIDTH 2400 0
DWIDTH 20 0
BBX 20 20 0 0
BITMAP
FFFFF0
FFFFF0
FFFFF0
FFFFF0
FFFFF0
FFFFF0
FFFFF0
FFFFF0
FFFFF0
FFFFF0
000000
000000
000000
000000
000000
000000
000000
000000
000000
000000
ENDCHAR
STARTCHAR 2463
ENCODING 9315
SWIDTH 2400 0
DWIDTH 20 0
BBX 20 20 0 0
BITMAP
000000
000000
000000
000000
000000
000000
000000
000000
000000
000000
FFC000
FFC000
FFC000
FFC000
FFC000
FFC000
FFC000
FFC000
FFC000
FFC000
ENDCHAR
STARTCHAR 2464
ENCODING 9316
SWIDTH 2400 0
DWIDTH 20 0
BBX 20 20 0 0
BITMAP
FFC000
FFC000
FFC000
FFC000
FFC000
FFC000
FFC000
FFC000
FFC000
FFC000
FFC000
FFC000
FFC000
FFC000
FFC000
FFC000
FFC000
FFC000
FFC000
FFC000
ENDCHAR
STARTCHAR 2465
ENCODING 9317
SWIDTH 2400 0
DWIDTH 20 0
BBX 20 20 0 0
BITMAP
003FF0
003FF0
003FF0
003FF0
003FF0
003FF0
003FF0
003FF0
003FF0
003FF0
FFC000
FFC000
FFC000
FFC000
FFC000
FFC000
FFC000
FFC000
FFC000
FFC000
ENDCHAR
STARTCHAR 2466
ENCODING 9318
SWIDTH 2400 0
DWIDTH 20 0
BBX 20 20 0 0
BITMAP
FFFFF0
FFFFF0
FFFFF0
FFFFF0
FFFFF0
FFFFF0
FFFFF0
FFFFF0
FFFFF0
FFFFF0
FFC000
FFC000
FFC000
FFC000
FFC000
FFC000
FFC000
FFC000
FFC000
FFC000
ENDCHAR
STARTCHAR 2467
ENCODING 9319
SWIDTH 2400 0
DWIDTH 20 0
BBX 20 20 0 0
BITMAP
000000
000000
000000
000000
000000
000000
000000
000000
000000
000000
003FF0
003FF0
003FF0
003FF0
003FF0
003FF0
003FF0
003FF0
003FF0
003FF0
ENDCHAR
STARTCHAR 2468
ENCODING 9320
SWIDTH 2400 0
DWIDTH 20 0
BBX 20 20 0 0
BITMAP
FFC000
FFC000
FFC000
FFC000
FFC000
FFC000
FFC000
FFC000
FFC000
FFC000
003FF0
003FF0
003FF0
003FF0
003FF0
003FF0
003FF0
003FF0
003FF0
003FF0
ENDCHAR
STARTCHAR 2469
ENCODING 9321
SWIDTH 2400 0
DWIDTH 20 0
BBX 20 20 0 0
BITMAP
003FF0
003FF0
003FF0
003FF0
003FF0
003FF0
003FF0
003FF0
003FF0
003FF0
003FF0
003FF0
003FF0
003FF0
003FF0
003FF0
003FF0
003FF0
003FF0
003FF0
ENDCHAR
STARTCHAR 246a
ENCODING 9322
SWIDTH 2400 0
DWIDTH 20 0
BBX 20 20 0 0
BITMAP
FFFFF0
FFFFF0
FFFFF0
FFFFF0
FFFFF0
FFFFF0
FFFFF0
FFFFF0
FFFFF0
FFFFF0
003FF0
003FF0
003FF0
003FF0
003FF0
003FF0
003FF0
003FF0
003FF0
003FF0
ENDCHAR
STARTCHAR 246b
ENCODING 9323
SWIDTH 2400 0
DWIDTH 20 0
BBX 20 20 0 0
BITMAP
000000
000000
000000
000000
000000
000000
000000
000000
000000
000000
FFFFF0
FFFFF0
FFFFF0
FFFFF0
FFFFF0
FFFFF0
FFFFF0
FFFFF0
FFFFF0
FFFFF0
ENDCHAR
STARTCHAR 246c
ENCODING 9324
SWIDTH 2400 0
DWIDTH 20 0
BBX 20 20 0 0
BITMAP
FFC000
FFC000
FFC000
FFC000
FFC000
FFC000
FFC000
FFC000
FFC000
FFC000
FFFFF0
FFFFF0
FFFFF0
FFFFF0
FFFFF0
FFFFF0
FFFFF0
FFFFF0
FFFFF0
FFFFF0
ENDCHAR
STARTCHAR 246d
ENCODING 9325
SWIDTH 2400 0
DWIDTH 20 0
BBX 20 20 0 0
BITMAP
003FF0
003FF0
003FF0
003FF0
003FF0
003FF0
003FF0
003FF0
003FF0
003FF0
FFFFF0
FFFFF0
FFFFF0
FFFFF0
FFFFF0
FFFFF0
FFFFF0
FFFFF0
FFFFF0
FFFFF0
ENDCHAR
STARTCHAR 246e
ENCODING 9326
SWIDTH 2400 0
DWIDTH 20 0
BBX 20 20 0 0
BITMAP
FFFFF0
FFFFF0
FFFFF0
FFFFF0
FFFFF0
FFFFF0
FFFFF0
FFFFF0
FFFFF0
FFFFF0
FFFFF0
FFFFF0
FFFFF0
FFFFF0
FFFFF0
FFFFF0
FFFFF0
FFFFF0
FFFFF0
FFFFF0
ENDCHAR
STARTCHAR 24b8
ENCODING 9400
SWIDTH 2400 0
DWIDTH 20 0
BBX 20 20 0 0
BITMAP
E001F0
E001F0
FFFFF0
3FFE70
3FFE70
3FFFF0
3FFFF0
3FFFF0
3FFFF0
3FFFF0
3FFFF0
3FFFF0
3FFFF0
3FFE70
3FFE70
E001F0
E001F0
FFFFF0
FFFFF0
FFFFF0
ENDCHAR
STARTCHAR 24bd
ENCODING 9405
SWIDTH 2400 0
DWIDTH 20 0
BBX 20 20 0 0
BITMAP
3FFE70
3FFE70
3FFE70
3FFE70
3FFE70
3FFE70
3FFE70
3FFE70
000070
000070
3FFE70
3FFE70
3FFE70
3FFE70
3FFE70
3FFE70
3FFE70
FFFFF0
FFFFF0
FFFFF0
ENDCHAR
STARTCHAR 2500
ENCODING 9472
SWIDTH 2400 0
DWIDTH 20 0
BBX 20 20 0 0
BITMAP
000000
000000
000000
000000
000000
000000
000000
000000
000000
000000
FFFFF0
FFFFF0
FFFFF0
000000
000000
000000
000000
000000
000000
000000
ENDCHAR
STARTCHAR 2503
ENCODING 9475
SWIDTH 2400 0
DWIDTH 20 0
BBX 20 20 0 0
BITMAP
01C000
01C000
01C000
01C000
01C000
01C000
01C000
01C000
01C000
01C000
01C000
01C000
01C000
01C000
01C000
01C000
01C000
01C000
01C000
01C000
ENDCHAR
STARTCHAR 2506
ENCODING 9478
SWIDTH 2400 0
DWIDTH 20 0
BBX 20 20 0 0
BITMAP
0001C0
0001C0
0001C0
0001C0
0001C0
0001C0
0001C0
0001C0
0001C0
0001C0
0001C0
0001C0
0001C0
0001C0
0001C0
0001C0
0001C0
0001C0
0001C0
0001C0
ENDCHAR
STARTCHAR 2507
ENCODING 9479
SWIDTH 2400 0
DWIDTH 20 0
BBX 20 20 0 0
BITMAP
380000
380000
380000
380000
380000
380000
380000
380000
380000
380000
380000
380000
380000
380000
380000
380000
380000
380000
380000
380000
ENDCHAR
STARTCHAR 250a
ENCODING 9482
SWIDTH 2400 0
DWIDTH 20 0
BBX 20 20 0 0
BITMAP
000E00
000E00
000E00
000E00
000E00
000E00
000E00
000E00
000E00
000E00
000E00
000E00
000E00
000E00
000E00
000E00
000E00
000E00
000E00
000E00
ENDCHAR
STARTCHAR 250b
ENCODING 9483
SWIDTH 2400 0
DWIDTH 20 0
BBX 20 20 0 0
BITMAP
070000
070000
070000
070000
070000
070000
070000
070000
070000
070000
070000
070000
070000
070000
070000
070000
070000
070000
070000
070000
ENDCHAR
STARTCHAR 250c
ENCODING 9484
SWIDTH 2400 0
DWIDTH 20 0
BBX 20 20 0 0
BITMAP
000000
000000
000000
000000
000000
000000
000000
000000
000000
000000
003FF0
003FF0
003FF0
003800
003800
003800
003800
003800
003800
003800
ENDCHAR
STARTCHAR 250f
ENCODING 9487
SWIDTH 2400 0
DWIDTH 20 0
BBX 20 20 0 0
BITMAP
FFFFF0
FFFFF0
FFFFF0
E00000
E00000
E00000
E00000
E00000
E00000
E00000
E00000
E00000
E00000
E00000
E00000
E00000
E00000
E00000
E00000
E00000
ENDCHAR
STARTCHAR 2510
ENCODING 9488
SWIDTH 2400 0
DWIDTH 20 0
BBX 20 20 0 0
BITMAP
000000
000000
000000
000000
000000
000000
000000
000000
000000
000000
FFF800
FFF800
FFF800
003800
003800
003800
003800
003800
003800
003800
ENDCHAR
STARTCHAR 2513
ENCODING 9491
SWIDTH 2400 0
DWIDTH 20 0
BBX 20 20 0 0
BITMAP
FFFFF0
FFFFF0
FFFFF0
000070
000070
000070
000070
000070
000070
000070
000070
000070
000070
000070
000070
000070
000070
000070
000070
000070
ENDCHAR
STARTCHAR 2514
ENCODING 9492
SWIDTH 2400 0
DWIDTH 20 0
BBX 20 20 0 0
BITMAP
003800
003800
003800
003800
003800
003800
003800
003800
003800
003800
003FF0
003FF0
003FF0
000000
000000
000000
000000
000000
000000
000000
ENDCHAR
STARTCHAR 2517
ENCODING 9495
SWIDTH 2400 0
DWIDTH 20 0
BBX 20 20 0 0
BITMAP
E00000
E00000
E00000
E00000
E00000
E00000
E00000
E00000
E00000
E00000
E00000
E00000
E00000
E00000
E00000
E00000
E00000
FFFFF0
FFFFF0
FFFFF0
ENDCHAR
STARTCHAR 2518
ENCODING 9496
SWIDTH 2400 0
DWIDTH 20 0
BBX 20 20 0 0
BITMAP
003800
003800
003800
003800
003800
003800
003800
003800
003800
003800
FFF800
FFF800
FFF800
000000
000000
000000
000000
000000
000000
000000
ENDCHAR
STARTCHAR 251b
ENCODING 9499
SWIDTH 2400 0
DWIDTH 20 0
BBX 20 20 0 0
BITMAP
000070
000070
000070
000070
000070
000070
000070
000070
000070
000070
000070
000070
000070
000070
000070
000070
000070
FFFFF0
FFFFF0
FFFFF0
ENDCHAR
STARTCHAR 251c
ENCODING 9500
SWIDTH 2400 0
DWIDTH 20 0
BBX 20 20 0 0
BITMAP
003800
003800
003800
003800
003800
003800
003800
003800
003800
003800
003FF0
003FF0
003FF0
003800
003800
003800
003800
003800
003800
003800
ENDCHAR
STARTCHAR 2524
ENCODING 9508
SWIDTH 2400 0
DWIDTH 20 0
BBX 20 20 0 0
BITMAP
003800
003800
003800
003800
003800
003800
003800
003800
003800
003800
FFF800
FFF800
FFF800
003800
003800
003800
003800
003800
003800
003800
ENDCHAR
STARTCHAR 252c
ENCODING 9516
SWIDTH 2400 0
DWIDTH 20 0
BBX 20 20 0 0
BITMAP
000000
000000
000000
000000
000000
000000
000000
000000
000000
000000
FFFFF0
FFFFF0
FFFFF0
003800
003800
003800
003800
003800
003800
003800
ENDCHAR
STARTCHAR 2534
ENCODING 9524
SWIDTH 2400 0
DWIDTH 20 0
BBX 20 20 0 0
BITMAP
003800
003800
003800
003800
003800
003800
003800
003800
003800
003800
FFFFF0
FFFFF0
FFFFF0
000000
000000
000000
000000
000000
000000
000000
ENDCHAR
STARTCHAR 253c
ENCODING 9532
SWIDTH 2400 0
DWIDTH 20 0
BBX 20 20 0 0
BITMAP
003800
003800
003800
003800
003800
003800
003800
003800
003800
003800
FFFFF0
FFFFF0
FFFFF0
003800
003800
003800
003800
003800
003800
003800
ENDCHAR
STARTCHAR 256d
ENCODING 9581
SWIDTH 2400 0
DWIDTH 20 0
BBX 20 20 0 0
BITMAP
000000
000000
000000
000000
000000
000000
000000
000000
000000
000000
0001F0
0001F0
000FF0
000E00
000E00
003800
003800
003800
003800
003800
ENDCHAR
STARTCHAR 256e
ENCODING 9582
SWIDTH 2400 0
DWIDTH 20 0
BBX 20 20 0 0
BITMAP
000000
000000
000000
000000
000000
000000
000000
000000
000000
000000
FF0000
FF0000
FFC000
01C000
01C000
003800
003800
003800
003800
003800
ENDCHAR
STARTCHAR 256f
ENCODING 9583
SWIDTH 2400 0
DWIDTH 20 0
BBX 20 20 0 0
BITMAP
003800
003800
003800
003800
003800
003800
003800
01F800
01C000
01C000
FF0000
FF0000
FF0000
000000
000000
000000
000000
000000
000000
000000
ENDCHAR
STARTCHAR 2570
ENCODING 9584
SWIDTH 2400 0
DWIDTH 20 0
BBX 20 20 0 0
BITMAP
003800
003800
003800
003800
003800
003800
003800
003E00
000E00
000E00
0001F0
0001F0
0001F0
000000
000000
000000
000000
000000
000000
000000
ENDCHAR
STARTCHAR 2580
ENCODING 9600
SWIDTH 2400 0
DWIDTH 20 0
BBX 20 20 0 0
BITMAP
FFFFF0
FFFFF0
FFFFF0
FFFFF0
FFFFF0
FFFFF0
FFFFF0
FFFFF0
FFFFF0
FFFFF0
000000
000000
000000
000000
000000
000000
000000
000000
000000
000000
ENDCHAR
STARTCHAR 2582
ENCODING 9602
SWIDTH 2400 0
DWIDTH 20 0
BBX 20 20 0 0
BITMAP
000000
000000
000000
000000
000000
000000
000000
000000
000000
000000
000000
000000
000000
000000
000000
FFFFF0
FFFFF0
FFFFF0
FFFFF0
FFFFF0
ENDCHAR
STARTCHAR 2583
ENCODING 9603
SWIDTH 2400 0
DWIDTH 20 0
BBX 20 20 0 0
BITMAP
000000
000000
000000
000000
000000
000000
000000
000000
000000
000000
000000
000000
FFFFF0
FFFFF0
FFFFF0
FFFFF0
FFFFF0
FFFFF0
FFFFF0
FFFFF0
ENDCHAR
STARTCHAR 2584
ENCODING 9604
SWIDTH 2400 0
DWIDTH 20 0
BBX 20 20 0 0
BITMAP
000000
000000
000000
000000
000000
000000
000000
000000
000000
000000
FFFFF0
FFFFF0
FFFFF0
FFFFF0
FFFFF0
FFFFF0
FFFFF0
FFFFF0
FFFFF0
FFFFF0
ENDCHAR
STARTCHAR 258d
ENCODING 9613
SWIDTH 2400 0
DWIDTH 20 0
BBX 20 20 0 0
BITMAP
FFC000
FFC000
FFC000
FFC000
FFC000
FFC000
FFC000
FFC000
FFC000
FFC000
FFC000
FFC000
FFC000
FFC000
FFC000
FFC000
FFC000
FFC000
FFC000
FFC000
ENDCHAR
STARTCHAR 258e
ENCODING 9614
SWIDTH 2400 0
DWIDTH 20 0
BBX 20 20 0 0
BITMAP
F80000
F80000
F80000
F80000
F80000
F80000
F80000
F80000
F80000
F80000
F80000
F80000
F80000
F80000
F80000
F80000
F80000
F80000
F80000
F80000
ENDCHAR
STARTCHAR 258f
ENCODING 9615
SWIDTH 2400 0
DWIDTH 20 0
BBX 20 20 0 0
BITMAP
E00000
E00000
E00000
E00000
E00000
E00000
E00000
E00000
E00000
E00000
E00000
E00000
E00000
E00000
E00000
E00000
E00000
E00000
E00000
E00000
ENDCHAR
STARTCHAR 2590
ENCODING 9616
SWIDTH 2400 0
DWIDTH 20 0
BBX 20 20 0 0
BITMAP
003FF0
003FF0
003FF0
003FF0
003FF0
003FF0
003FF0
003FF0
003FF0
003FF0
003FF0
003FF0
003FF0
003FF0
003FF0
003FF0
003FF0
003FF0
003FF0
003FF0
ENDCHAR
STARTCHAR 2591
ENCODING 9617
SWIDTH 2400 0
DWIDTH 20 0
BBX 20 20 0 0
BITMAP
39CE70
39CE70
FFFFF0
E739C0
E739C0
39CE70
39CE70
FFFFF0
E739C0
E739C0
39CE70
39CE70
FFFFF0
E739C0
E739C0
39CE70
39CE70
FFFFF0
E739C0
E739C0
ENDCHAR
STARTCHAR 2592
ENCODING 9618
SWIDTH 2400 0
DWIDTH 20 0
BBX 20 20 0 0
BITMAP
E739C0
E739C0
FFFFF0
39CE70
39CE70
E739C0
E739C0
FFFFF0
39CE70
39CE70
E739C0
E739C0
FFFFF0
39CE70
39CE70
E739C0
E739C0
FFFFF0
39CE70
39CE70
ENDCHAR
STARTCHAR 2593
ENCODING 9619
SWIDTH 2400 0
DWIDTH 20 0
BBX 20 20 0 0
BITMAP
E70000
E70000
FFC000
39C000
39C000
E70000
E70000
FFC000
39C000
39C000
E70000
E70000
FFC000
39C000
39C000
E70000
E70000
FFC000
39C000
39C000
ENDCHAR
STARTCHAR 2595
ENCODING 9621
SWIDTH 2400 0
DWIDTH 20 0
BBX 20 20 0 0
BITMAP
000070
000070
000070
000070
000070
000070
000070
000070
000070
000070
000070
000070
000070
000070
000070
000070
000070
000070
000070
000070
ENDCHAR
STARTCHAR 259a
ENCODING 9626
SWIDTH 2400 0
DWIDTH 20 0
BBX 20 20 0 0
BITMAP
FFC000
FFC000
FFC000
FFC000
FFC000
FFC000
FFC000
FFC000
FFC000
FFC000
003FF0
003FF0
003FF0
003FF0
003FF0
003FF0
003FF0
003FF0
003FF0
003FF0
ENDCHAR
STARTCHAR 259e
ENCODING 9630
SWIDTH 2400 0
DWIDTH 20 0
BBX 20 20 0 0
BITMAP
003FF0
003FF0
003FF0
003FF0
003FF0
003FF0
003FF0
003FF0
003FF0
003FF0
FFC000
FFC000
FFC000
FFC000
FFC000
FFC000
FFC000
FFC000
FFC000
FFC000
ENDCHAR
STARTCHAR 25a0
ENCODING 9632
SWIDTH 2400 0
DWIDTH 20 0
BBX 20 20 0 0
BITMAP
FFFFF0
FFFFF0
FFFFF0
FFFFF0
FFFFF0
FFFFF0
FFFFF0
FFFFF0
FFFFF0
FFFFF0
FFFFF0
FFFFF0
FFFFF0
FFFFF0
FFFFF0
FFFFF0
FFFFF0
FFFFF0
FFFFF0
FFFFF0
ENDCHAR
STARTCHAR 25bd
ENCODING 9661
SWIDTH 2400 0
DWIDTH 20 0
BBX 20 20 0 0
BITMAP
FFFFF0
FFFFF0
FFFFF0
FFFFF0
FFFFF0
000000
000000
000000
000000
000000
000000
000000
000000
000000
000000
000000
000000
000000
000000
000000
ENDCHAR
STARTCHAR 25c0
ENCODING 9664
SWIDTH 2400 0
DWIDTH 20 0
BBX 20 20 0 0
BITMAP
000FF0
000FF0
000FF0
000FF0
000FF0
000FF0
000FF0
000FF0
000FF0
000FF0
000FF0
000FF0
000FF0
000FF0
000FF0
000FF0
000FF0
000FF0
000FF0
000FF0
ENDCHAR
STARTCHAR 25c1
ENCODING 9665
SWIDTH 2400 0
DWIDTH 20 0
BBX 20 20 0 0
BITMAP
0001F0
0001F0
0001F0
0001F0
0001F0
0001F0
0001F0
0001F0
0001F0
0001F0
0001F0
0001F0
0001F0
0001F0
0001F0
0001F0
0001F0
0001F0
0001F0
0001F0
ENDCHAR
STARTCHAR 25cb
ENCODING 9675
SWIDTH 2400 0
DWIDTH 20 0
BBX 20 20 0 0
BITMAP
000000
000000
07FE00
07FE00
07FE00
3801C0
3801C0
3801C0
3801C0
3801C0
3801C0
3801C0
3801C0
3801C0
3801C0
07FE00
07FE00
07FE00
000000
000000
ENDCHAR
STARTCHAR 25ce
ENCODING 9678
SWIDTH 2400 0
DWIDTH 20 0
BBX 20 20 0 0
BITMAP
FFFFF0
FFFFF0
FFFFF0
F801F0
F801F0
E00070
E00070
E00070
E00070
E00070
E00070
E00070
E00070
E00070
E00070
F801F0
F801F0
FFFFF0
FFFFF0
FFFFF0
ENDCHAR
STARTCHAR 25cf
ENCODING 9679
SWIDTH 2400 0
DWIDTH 20 0
BBX 20 20 0 0
BITMAP
000000
000000
07FE00
07FE00
07FE00
3FFFC0
3FFFC0
3FFFC0
3FFFC0
3FFFC0
3FFFC0
3FFFC0
3FFFC0
3FFFC0
3FFFC0
07FE00
07FE00
07FE00
000000
000000
ENDCHAR
STARTCHAR 25e2
ENCODING 9698
SWIDTH 2400 0
DWIDTH 20 0
BBX 20 20 0 0
BITMAP
000070
000070
0001F0
0001F0
0001F0
000FF0
000FF0
003FF0
003FF0
003FF0
01FFF0
01FFF0
07FFF0
07FFF0
07FFF0
3FFFF0
3FFFF0
FFFFF0
FFFFF0
FFFFF0
ENDCHAR
STARTCHAR 25e3
ENCODING 9699
SWIDTH 2400 0
DWIDTH 20 0
BBX 20 20 0 0
BITMAP
E00000
E00000
F80000
F80000
F80000
FF0000
FF0000
FFC000
FFC000
FFC000
FFF800
FFF800
FFFE00
FFFE00
FFFE00
FFFFC0
FFFFC0
FFFFF0
FFFFF0
FFFFF0
ENDCHAR
STARTCHAR 25e4
ENCODING 9700
SWIDTH 2400 0
DWIDTH 20 0
BBX 20 20 0 0
BITMAP
FFFFF0
FFFFF0
FFFFF0
FFFFC0
FFFFC0
FFFE00
FFFE00
FFFE00
FFF800
FFF800
FFC000
FFC000
FFC000
FF0000
FF0000
F80000
F80000
F80000
E00000
E00000
ENDCHAR
STARTCHAR 25e5
ENCODING 9701
SWIDTH 2400 0
DWIDTH 20 0
BBX 20 20 0 0
BITMAP
FFFFF0
FFFFF0
FFFFF0
3FFFF0
3FFFF0
07FFF0
07FFF0
07FFF0
01FFF0
01FFF0
003FF0
003FF0
003FF0
000FF0
000FF0
0001F0
0001F0
0001F0
000070
000070
ENDCHAR
STARTCHAR 263a
ENCODING 9786
SWIDTH 2400 0
DWIDTH 20 0
BBX 20 20 0 0
BITMAP
07FE00
07FE00
3FFFC0
3801C0
3801C0
E70E70
E70E70
E70E70
E00070
E00070
E70E70
E70E70
E7FE70
E1F870
E1F870
3801C0
3801C0
3FFFC0
07FE00
07FE00
ENDCHAR
STARTCHAR 263b
ENCODING 9787
SWIDTH 2400 0
DWIDTH 20 0
BBX 20 20 0 0
BITMAP
07FE00
07FE00
3FFFC0
3FFFC0
3FFFC0
F9F9F0
F9F9F0
F9F9F0
F9F9F0
F9F9F0
FFFFF0
FFFFF0
FFFFF0
F9F9F0
F9F9F0
3F0FC0
3F0FC0
3FFFC0
07FE00
07FE00
ENDCHAR
STARTCHAR 2660
ENCODING 9824
SWIDTH 2400 0
DWIDTH 20 0
BBX 20 20 0 0
BITMAP
01C000
01C000
07F800
07F800
07F800
3FFE00
3FFE00
FFFFC0
FFFFC0
FFFFC0
FFFFC0
FFFFC0
FFFFC0
07F800
07F800
3FFE00
3FFE00
3FFE00
000000
000000
ENDCHAR
STARTCHAR 2663
ENCODING 9827
SWIDTH 2400 0
DWIDTH 20 0
BBX 20 20 0 0
BITMAP
07F800
07F800
07F800
07F800
07F800
FFFFC0
FFFFC0
FFFFC0
FFFFC0
FFFFC0
F9CFC0
F9CFC0
F9CFC0
01C000
01C000
3FFE00
3FFE00
3FFE00
000000
000000
ENDCHAR
STARTCHAR 2665
ENCODING 9829
SWIDTH 2400 0
DWIDTH 20 0
BBX 20 20 0 0
BITMAP
3F3E00
3F3E00
FFFFC0
FFFFC0
FFFFC0
FFFFC0
FFFFC0
FFFFC0
FFFFC0
FFFFC0
3FFE00
3FFE00
3FFE00
07F800
07F800
01C000
01C000
01C000
000000
000000
ENDCHAR
STARTCHAR 2666
ENCODING 9830
SWIDTH 2400 0
DWIDTH 20 0
BBX 20 20 0 0
BITMAP
01C000
01C000
07F800
07F800
07F800
3FFE00
3FFE00
FFFFC0
FFFFC0
FFFFC0
3FFE00
3FFE00
3FFE00
07F800
07F800
01C000
01C000
01C000
000000
000000
ENDCHAR
STARTCHAR 3001
ENCODING 12289
SWIDTH 2400 0
DWIDTH 20 0
BBX 20 20 0 0
BITMAP
000000
000000
000000
000000
000000
000000
000000
000000
000000
000000
380000
380000
3F0000
070000
070000
01C000
01C000
01C000
000000
000000
ENDCHAR
STARTCHAR 3002
ENCODING 12290
SWIDTH 2400 0
DWIDTH 20 0
BBX 20 20 0 0
BITMAP
000000
000000
000000
000000
000000
000000
000000
07C000
07C000
07C000
383800
383800
383800
383800
383800
07C000
07C000
07C000
000000
000000
ENDCHAR
STARTCHAR 300c
ENCODING 12300
SWIDTH 2400 0
DWIDTH 20 0
BBX 20 20 0 0
BITMAP
01FFC0
01FFC0
01FFC0
01C000
01C000
01C000
01C000
01C000
01C000
01C000
000000
000000
000000
000000
000000
000000
000000
000000
000000
000000
ENDCHAR
STARTCHAR 300d
ENCODING 12301
SWIDTH 2400 0
DWIDTH 20 0
BBX 20 20 0 0
BITMAP
000000
000000
000000
000000
000000
000000
000000
003800
003800
003800
003800
003800
003800
003800
003800
3FF800
3FF800
3FF800
000000
000000
ENDCHAR
STARTCHAR 300e
ENCODING 12302
SWIDTH 2400 0
DWIDTH 20 0
BBX 20 20 0 0
BITMAP
07FFC0
07FFC0
07FFC0
0701C0
0701C0
073FC0
073FC0
073FC0
073800
073800
07F800
07F800
07F800
000000
000000
000000
000000
000000
000000
000000
ENDCHAR
STARTCHAR 300f
ENCODING 12303
SWIDTH 2400 0
DWIDTH 20 0
BBX 20 20 0 0
BITMAP
000000
000000
000000
000000
000000
07F800
07F800
07F800
073800
073800
FF3800
FF3800
FF3800
E03800
E03800
FFF800
FFF800
FFF800
000000
000000
ENDCHAR
STARTCHAR 301d
ENCODING 12317
SWIDTH 2400 0
DWIDTH 20 0
BBX 20 20 0 0
BITMAP
070000
070000
E7C000
E1C000
E1C000
383800
383800
3F3800
070000
070000
000000
000000
000000
000000
000000
000000
000000
000000
000000
000000
ENDCHAR
STARTCHAR 3041
ENCODING 12353
SWIDTH 2400 0
DWIDTH 20 0
BBX 20 20 0 0
BITMAP
000000
000000
01C000
01C000
01C000
FFFFC0
FFFFC0
FFFFC0
01CE00
01CE00
3FFE00
3FFE00
FFFFC0
E1F9C0
E1F9C0
3FCE00
3FCE00
3FCE00
000000
000000
ENDCHAR
STARTCHAR 3042
ENCODING 12354
SWIDTH 2400 0
DWIDTH 20 0
BBX 20 20 0 0
BITMAP
070000
070000
FFFFC0
FFFFC0
FFFFC0
070000
070000
3FFE00
3FFE00
3FFE00
E739C0
E739C0
E7F9C0
E1C1C0
E1C1C0
3F0E00
3F0E00
3F0E00
000000
000000
ENDCHAR
STARTCHAR 3043
ENCODING 12355
SWIDTH 2400 0
DWIDTH 20 0
BBX 20 20 0 0
BITMAP
000000
000000
000000
000000
000000
E00E00
E00E00
E00FC0
E001C0
E001C0
E001C0
E001C0
E001C0
E001C0
E001C0
380000
380000
380000
000000
000000
ENDCHAR
STARTCHAR 3044
ENCODING 12356
SWIDTH 2400 0
DWIDTH 20 0
BBX 20 20 0 0
BITMAP
E00E00
E00E00
E00FC0
E001C0
E001C0
E001C0
E001C0
E001C0
E001C0
E001C0
E001C0
E001C0
F801C0
3801C0
3801C0
07C000
07C000
07C000
000000
000000
ENDCHAR
STARTCHAR 3045
ENCODING 12357
SWIDTH 2400 0
DWIDTH 20 0
BBX 20 20 0 0
BITMAP
000000
000000
3FC000
3FC000
3FC000
000000
000000
FFF800
FFF800
FFF800
000E00
000E00
000E00
000E00
000E00
01F800
01F800
01F800
000000
000000
ENDCHAR
STARTCHAR 3046
ENCODING 12358
SWIDTH 2400 0
DWIDTH 20 0
BBX 20 20 0 0
BITMAP
3FFE00
3FFE00
3FFE00
000000
000000
FFFE00
FFFE00
FFFFC0
0001C0
0001C0
0001C0
0001C0
000FC0
000E00
000E00
07F800
07F800
07F800
000000
000000
ENDCHAR
STARTCHAR 3047
ENCODING 12359
SWIDTH 2400 0
DWIDTH 20 0
BBX 20 20 0 0
BITMAP
000000
000000
07F800
07F800
07F800
000000
000000
FFFE00
FFFE00
FFFE00
01F800
01F800
3FF800
3F3800
3F3800
E00E00
E00E00
E00E00
000000
000000
ENDCHAR
STARTCHAR 3048
ENCODING 12360
SWIDTH 2400 0
DWIDTH 20 0
BBX 20 20 0 0
BITMAP
3FFE00
3FFE00
3FFE00
000000
000000
FFFFC0
FFFFC0
FFFFC0
000E00
000E00
003800
003800
07FE00
07CE00
07CE00
F801C0
F801C0
F801C0
000000
000000
ENDCHAR
STARTCHAR 3049
ENCODING 12361
SWIDTH 2400 0
DWIDTH 20 0
BBX 20 20 0 0
BITMAP
000000
000000
070000
070000
070000
FFF9C0
FFF9C0
FFF9C0
070000
070000
3FFE00
3FFE00
FFFFC0
E701C0
E701C0
3F3E00
3F3E00
3F3E00
000000
000000
ENDCHAR
STARTCHAR 304a
ENCODING 12362
SWIDTH 2400 0
DWIDTH 20 0
BBX 20 20 0 0
BITMAP
070000
070000
FFFE00
FFFE00
FFFE00
070070
070070
3FFE70
3FFE00
3FFE00
E701C0
E701C0
E701C0
E701C0
E701C0
3F3E00
3F3E00
3F3E00
000000
000000
ENDCHAR
STARTCHAR 304b
ENCODING 12363
SWIDTH 2400 0
DWIDTH 20 0
BBX 20 20 0 0
BITMAP
0701C0
0701C0
FFF9F0
FFF870
FFF870
070E70
070E70
070E70
070E00
070E00
070E00
070E00
070E00
070E00
070E00
383800
383800
383800
000000
000000
ENDCHAR
STARTCHAR 304d
ENCODING 12365
SWIDTH 2400 0
DWIDTH 20 0
BBX 20 20 0 0
BITMAP
003800
003800
FFFFC0
FFFFC0
FFFFC0
003800
003800
FFFFC0
FFFFC0
FFFFC0
003800
003800
3FF800
3FF800
3FF800
E00000
E00000
FFFE00
3FFE00
3FFE00
ENDCHAR
STARTCHAR 304f
ENCODING 12367
SWIDTH 2400 0
DWIDTH 20 0
BBX 20 20 0 0
BITMAP
000FC0
000FC0
01FFC0
01F800
01F800
070000
070000
FF0000
F80000
F80000
070000
070000
07F800
01F800
01F800
000FC0
000FC0
000FC0
000000
000000
ENDCHAR
STARTCHAR 3051
ENCODING 12369
SWIDTH 2400 0
DWIDTH 20 0
BBX 20 20 0 0
BITMAP
E00E00
E00E00
E7FFC0
E7FFC0
E7FFC0
E00E00
E00E00
E00E00
E00E00
E00E00
E00E00
E00E00
E00E00
E00E00
E00E00
39F800
39F800
39F800
000000
000000
ENDCHAR
STARTCHAR 3053
ENCODING 12371
SWIDTH 2400 0
DWIDTH 20 0
BBX 20 20 0 0
BITMAP
3FFE00
3FFE00
3FFFC0
0001C0
0001C0
0001C0
0001C0
0001C0
000000
000000
E00000
E00000
E00000
E00000
E00000
3FFFC0
3FFFC0
3FFFC0
000000
000000
ENDCHAR
STARTCHAR 3055
ENCODING 12373
SWIDTH 2400 0
DWIDTH 20 0
BBX 20 20 0 0
BITMAP
000E00
000E00
FFFFC0
FFFFC0
FFFFC0
000E00
000E00
3FFE00
3FFE00
3FFE00
E00000
E00000
E00000
E00000
E00000
3FFFC0
3FFFC0
3FFFC0
000000
000000
ENDCHAR
STARTCHAR 3057
ENCODING 12375
SWIDTH 2400 0
DWIDTH 20 0
BBX 20 20 0 0
BITMAP
E00000
E00000
E00000
E00000
E00000
E00000
E00000
E001C0
E001C0
E001C0
E001C0
E001C0
F80FC0
380E00
380E00
07F800
07F800
07F800
000000
000000
ENDCHAR
STARTCHAR 3059
ENCODING 12377
SWIDTH 2400 0
DWIDTH 20 0
BBX 20 20 0 0
BITMAP
003800
003800
FFFFC0
FFFFC0
FFFFC0
003800
003800
01F800
01F800
01F800
070E00
070E00
07FE00
01F800
01F800
003800
003800
3FF800
3FC000
3FC000
ENDCHAR
STARTCHAR 305b
ENCODING 12379
SWIDTH 2400 0
DWIDTH 20 0
BBX 20 20 0 0
BITMAP
380E00
380E00
FFFFC0
FFFFC0
FFFFC0
380E00
380E00
380E00
380E00
380E00
383800
383800
383800
380000
380000
07FFC0
07FFC0
07FFC0
000000
000000
ENDCHAR
STARTCHAR 305d
ENCODING 12381
SWIDTH 2400 0
DWIDTH 20 0
BBX 20 20 0 0
BITMAP
FFFE00
FFFE00
FFFE00
01C000
01C000
070000
070000
FFFFC0
FFFFC0
FFFFC0
01C000
01C000
07C000
070000
070000
01FFC0
01FFC0
01FFC0
000000
000000
ENDCHAR
STARTCHAR 305f
ENCODING 12383
SWIDTH 2400 0
DWIDTH 20 0
BBX 20 20 0 0
BITMAP
070000
070000
FFFFC0
FFFFC0
FFFFC0
380000
380000
39FFC0
39FFC0
39FFC0
E00000
E00000
E70000
E70000
E70000
E1FFC0
E1FFC0
E1FFC0
000000
000000
ENDCHAR
STARTCHAR 3061
ENCODING 12385
SWIDTH 2400 0
DWIDTH 20 0
BBX 20 20 0 0
BITMAP
01C000
01C000
FFFFC0
FFFFC0
FFFFC0
380000
380000
FFFE00
FFFE00
FFFE00
0001C0
0001C0
0001C0
0001C0
0001C0
FFFE00
FFFE00
FFFE00
000000
000000
ENDCHAR
STARTCHAR 3063
ENCODING 12387
SWIDTH 2400 0
DWIDTH 20 0
BBX 20 20 0 0
BITMAP
000000
000000
000000
000000
000000
000000
000000
FFFE00
FFFE00
FFFE00
0001C0
0001C0
0001C0
0001C0
0001C0
07FE00
07FE00
07FE00
000000
000000
ENDCHAR
STARTCHAR 3064
ENCODING 12388
SWIDTH 2400 0
DWIDTH 20 0
BBX 20 20 0 0
BITMAP
000000
000000
FFFE00
FFFE00
FFFE00
0001C0
0001C0
0001C0
0001C0
0001C0
0001C0
0001C0
000FC0
000E00
000E00
3FF800
3FF800
3FF800
000000
000000
ENDCHAR
STARTCHAR 3066
ENCODING 12390
SWIDTH 2400 0
DWIDTH 20 0
BBX 20 20 0 0
BITMAP
000000
000000
FFFFC0
FFFFC0
FFFFC0
003800
003800
01F800
01C000
01C000
070000
070000
07C000
01C000
01C000
003FC0
003FC0
003FC0
000000
000000
ENDCHAR
STARTCHAR 3068
ENCODING 12392
SWIDTH 2400 0
DWIDTH 20 0
BBX 20 20 0 0
BITMAP
070000
070000
070000
070000
070000
3FFFC0
3FFFC0
FFFFC0
E00000
E00000
E00000
E00000
E00000
E00000
E00000
3FFFC0
3FFFC0
3FFFC0
000000
000000
ENDCHAR
STARTCHAR 306a
ENCODING 12394
SWIDTH 2400 0
DWIDTH 20 0
BBX 20 20 0 0
BITMAP
070000
070000
FFF9C0
FFF9C0
FFF9C0
380000
380000
380E00
380E00
380E00
E03E00
E03E00
E1FFC0
E1C1C0
E1C1C0
E03E00
E03E00
E03E00
000000
000000
ENDCHAR
STARTCHAR 306b
ENCODING 12395
SWIDTH 2400 0
DWIDTH 20 0
BBX 20 20 0 0
BITMAP
39FFC0
39FFC0
F9FFC0
E00000
E00000
E00000
E00000
E00000
E00000
E00000
E00000
E00000
E70000
E70000
E70000
39FFC0
39FFC0
39FFC0
000000
000000
ENDCHAR
STARTCHAR 306c
ENCODING 12396
SWIDTH 2400 0
DWIDTH 20 0
BBX 20 20 0 0
BITMAP
383800
383800
3FFE00
3FFE00
3FFE00
E1C1C0
E1C1C0
E1C1C0
E1C1C0
E1C1C0
E70FC0
E70FC0
E73FF0
E739F0
E739F0
380E00
380E00
380E00
000000
000000
ENDCHAR
STARTCHAR 306d
ENCODING 12397
SWIDTH 2400 0
DWIDTH 20 0
BBX 20 20 0 0
BITMAP
070000
070000
FF0000
FF0000
FF0000
073E00
073E00
07FFC0
07C1C0
07C1C0
3F0FC0
3F0FC0
FF3FF0
E739F0
E739F0
070E00
070E00
070E00
000000
000000
ENDCHAR
STARTCHAR 306e
ENCODING 12398
SWIDTH 2400 0
DWIDTH 20 0
BBX 20 20 0 0
BITMAP
3FFE00
3FFE00
FFFFC0
E1C1C0
E1C1C0
E1C1C0
E1C1C0
E1C1C0
E1C1C0
E1C1C0
E1C1C0
E1C1C0
E1C1C0
E1C1C0
E1C1C0
3FCE00
3FCE00
3FCE00
000000
000000
ENDCHAR
STARTCHAR 306f
ENCODING 12399
SWIDTH 2400 0
DWIDTH 20 0
BBX 20 20 0 0
BITMAP
E00E00
E00E00
E7FFC0
E7FFC0
E7FFC0
E00E00
E00E00
E00E00
E00E00
E00E00
E03E00
E03E00
E1FFC0
E1CFC0
E1CFC0
383E00
383E00
383E00
000000
000000
ENDCHAR
STARTCHAR 3072
ENCODING 12402
SWIDTH 2400 0
DWIDTH 20 0
BBX 20 20 0 0
BITMAP
FF0000
FF0000
FF0E00
070E00
070E00
380FC0
380FC0
F80FC0
E00E00
E00E00
E00E00
E00E00
E00E00
E00E00
E00E00
3FF800
3FF800
3FF800
000000
000000
ENDCHAR
STARTCHAR 3075
ENCODING 12405
SWIDTH 2400 0
DWIDTH 20 0
BBX 20 20 0 0
BITMAP
3FF800
3FF800
3FF800
01C000
01C000
070000
070000
07C000
01C000
01C000
E039C0
E039C0
E039C0
E039C0
E039C0
07C000
07C000
07C000
000000
000000
ENDCHAR
STARTCHAR 3078
ENCODING 12408
SWIDTH 2400 0
DWIDTH 20 0
BBX 20 20 0 0
BITMAP
070000
070000
3FC000
39C000
39C000
E03800
E03800
E03E00
E00E00
E00E00
0001C0
0001C0
0001C0
0001C0
0001C0
0001C0
0001C0
0001C0
000000
000000
ENDCHAR
STARTCHAR 307b
ENCODING 12411
SWIDTH 2400 0
DWIDTH 20 0
BBX 20 20 0 0
BITMAP
E7FFC0
E7FFC0
E7FFC0
E00E00
E00E00
E7FFC0
E7FFC0
E7FFC0
E00E00
E00E00
E03E00
E03E00
E1FFC0
E1C1C0
E1C1C0
383E00
383E00
383E00
000000
000000
ENDCHAR
STARTCHAR 307e
ENCODING 12414
SWIDTH 2400 0
DWIDTH 20 0
BBX 20 20 0 0
BITMAP
01C000
01C000
FFFFC0
FFFFC0
FFFFC0
01C000
01C000
FFFFC0
FFFFC0
FFFFC0
01C000
01C000
3FC000
3FC000
3FC000
E03FC0
E03FC0
FFFFC0
3FC000
3FC000
ENDCHAR
STARTCHAR 307f
ENCODING 12415
SWIDTH 2400 0
DWIDTH 20 0
BBX 20 20 0 0
BITMAP
FFC000
FFC000
FFC1C0
01C1C0
01C1C0
01C1C0
01C1C0
3FFFF0
3FFFF0
3FFFF0
E1C1C0
E1C1C0
E1C1C0
E1C1C0
E1C1C0
3F0E00
3F0E00
3F0E00
000000
000000
ENDCHAR
STARTCHAR 3080
ENCODING 12416
SWIDTH 2400 0
DWIDTH 20 0
BBX 20 20 0 0
BITMAP
070000
070000
FFFFC0
FFFFC0
FFFFC0
070000
070000
3F01F0
3F01F0
3F01F0
E1C000
E1C000
FFC1C0
3F01C0
3F01C0
01FE00
01FE00
01FE00
000000
000000
ENDCHAR
STARTCHAR 3081
ENCODING 12417
SWIDTH 2400 0
DWIDTH 20 0
BBX 20 20 0 0
BITMAP
380E00
380E00
380E00
380E00
380E00
3FFE00
3FFE00
FFFFC0
E739C0
E739C0
E1C1C0
E1C1C0
E1C1C0
E1C1C0
E1C1C0
3F0E00
3F0E00
3F0E00
000000
000000
ENDCHAR
STARTCHAR 3082
ENCODING 12418
SWIDTH 2400 0
DWIDTH 20 0
BBX 20 20 0 0
BITMAP
380000
380000
FFFFC0
FFFFC0
FFFFC0
380000
380000
FFFFC0
FFFFC0
FFFFC0
380000
380000
3801C0
3801C0
3801C0
07FE00
07FE00
07FE00
000000
000000
ENDCHAR
STARTCHAR 3083
ENCODING 12419
SWIDTH 2400 0
DWIDTH 20 0
BBX 20 20 0 0
BITMAP
000000
000000
0001C0
0001C0
0001C0
39FE00
39FE00
FFFFC0
FF01C0
FF01C0
0701C0
0701C0
070FC0
070E00
070E00
01C000
01C000
01C000
000000
000000
ENDCHAR
STARTCHAR 3084
ENCODING 12420
SWIDTH 2400 0
DWIDTH 20 0
BBX 20 20 0 0
BITMAP
3801C0
3801C0
FFFFC0
FFFE00
FFFE00
3801C0
3801C0
3801C0
3801C0
3801C0
070E00
070E00
070E00
070000
070000
070000
070000
070000
000000
000000
ENDCHAR
STARTCHAR 3085
ENCODING 12421
SWIDTH 2400 0
DWIDTH 20 0
BBX 20 20 0 0
BITMAP
000000
000000
000000
000000
000000
E1C000
E1C000
E7FE00
E7FE00
E7FE00
F9C1C0
F9C1C0
F9CFC0
E1CE00
E1CE00
070000
070000
070000
000000
000000
ENDCHAR
STARTCHAR 3086
ENCODING 12422
SWIDTH 2400 0
DWIDTH 20 0
BBX 20 20 0 0
BITMAP
003800
003800
E1FE00
E1FE00
E1FE00
E739C0
E739C0
FF39C0
F839C0
F839C0
E039C0
E039C0
E03FC0
E03E00
E03E00
07C000
07C000
07C000
000000
000000
ENDCHAR
STARTCHAR 3087
ENCODING 12423
SWIDTH 2400 0
DWIDTH 20 0
BBX 20 20 0 0
BITMAP
000000
000000
01C000
01C000
01C000
01FE00
01FE00
01FE00
01C000
01C000
3FF800
3FF800
FFF800
E1C000
E1C000
3F0000
3F0000
3F0000
000000
000000
ENDCHAR
STARTCHAR 3088
ENCODING 12424
SWIDTH 2400 0
DWIDTH 20 0
BBX 20 20 0 0
BITMAP
070000
070000
07FFC0
07FFC0
07FFC0
070000
070000
3F0000
3F0000
3F0000
E1FE00
E1FE00
E1FE00
E1C000
E1C000
3F0000
3F0000
3F0000
000000
000000
ENDCHAR
STARTCHAR 3089
ENCODING 12425
SWIDTH 2400 0
DWIDTH 20 0
BBX 20 20 0 0
BITMAP
07FFC0
07FFC0
E7FFC0
E00000
E00000
E1FE00
E1FE00
FFFFC0
FF01C0
FF01C0
E001C0
E001C0
E001C0
0001C0
0001C0
07FE00
07FE00
07FE00
000000
000000
ENDCHAR
STARTCHAR 308a
ENCODING 12426
SWIDTH 2400 0
DWIDTH 20 0
BBX 20 20 0 0
BITMAP
E001C0
E001C0
E001C0
E001C0
E001C0
E001C0
E001C0
E001C0
E001C0
E001C0
3801C0
3801C0
380FC0
000E00
000E00
01F800
01F800
01F800
000000
000000
ENDCHAR
STARTCHAR 308b
ENCODING 12427
SWIDTH 2400 0
DWIDTH 20 0
BBX 20 20 0 0
BITMAP
FFFFC0
FFFFC0
FFFFC0
003800
003800
01C000
01C000
3FFE00
3FFE00
3FFE00
E001C0
E001C0
E7F9C0
07F9C0
07F9C0
380E00
380E00
3FFE00
07F800
07F800
ENDCHAR
STARTCHAR 308c
ENCODING 12428
SWIDTH 2400 0
DWIDTH 20 0
BBX 20 20 0 0
BITMAP
070000
070000
FF0FC0
FF0FC0
FF0FC0
073E00
073E00
07FE00
07CE00
07CE00
070E00
070E00
3F0E00
3F0E00
3F0E00
E701C0
E701C0
E701C0
000000
000000
ENDCHAR
STARTCHAR 308d
ENCODING 12429
SWIDTH 2400 0
DWIDTH 20 0
BBX 20 20 0 0
BITMAP
FFFFC0
FFFFC0
FFFFC0
003800
003800
01C000
01C000
3FFE00
3FFE00
3FFE00
E001C0
E001C0
E001C0
0001C0
0001C0
380E00
380E00
3FFE00
07F800
07F800
ENDCHAR
STARTCHAR 308f
ENCODING 12431
SWIDTH 2400 0
DWIDTH 20 0
BBX 20 20 0 0
BITMAP
070000
070000
FF3E00
FF3E00
FF3E00
07C1C0
07C1C0
07C1C0
07C1C0
07C1C0
0701C0
0701C0
3F01C0
3F01C0
3F01C0
E73E00
E73E00
E73E00
000000
000000
ENDCHAR
STARTCHAR 3092
ENCODING 12434
SWIDTH 2400 0
DWIDTH 20 0
BBX 20 20 0 0
BITMAP
01C000
01C000
FFFFC0
FFFFC0
FFFFC0
070000
070000
3FFE00
3FFE00
3FFE00
E1C000
E1C000
F9C000
380000
380000
07FFC0
07FFC0
07FFC0
000000
000000
ENDCHAR
STARTCHAR 3093
ENCODING 12435
SWIDTH 2400 0
DWIDTH 20 0
BBX 20 20 0 0
BITMAP
01C000
01C000
07C000
070000
070000
07F800
07F800
3FFE00
380E00
380E00
380E00
380E00
F83E00
E03800
E03800
E03FC0
E03FC0
E03FC0
000000
000000
ENDCHAR
STARTCHAR 309b
ENCODING 12443
SWIDTH 2400 0
DWIDTH 20 0
BBX 20 20 0 0
BITMAP
070000
070000
E7C000
E1C000
E1C000
383800
383800
3F3800
070000
070000
000000
000000
000000
000000
000000
000000
000000
000000
000000
000000
ENDCHAR
STARTCHAR 309c
ENCODING 12444
SWIDTH 2400 0
DWIDTH 20 0
BBX 20 20 0 0
BITMAP
3F0000
3F0000
FFC000
E1C000
E1C000
E1C000
E1C000
FFC000
3F0000
3F0000
000000
000000
000000
000000
000000
000000
000000
000000
000000
000000
ENDCHAR
STARTCHAR 30a1
ENCODING 12449
SWIDTH 2400 0
DWIDTH 20 0
BBX 20 20 0 0
BITMAP
000000
000000
000000
000000
000000
FFFFC0
FFFFC0
FFFFC0
0001C0
0001C0
01CE00
01CE00
01CE00
01C000
01C000
070000
070000
070000
000000
000000
ENDCHAR
STARTCHAR 30a2
ENCODING 12450
SWIDTH 2400 0
DWIDTH 20 0
BBX 20 20 0 0
BITMAP
FFFFC0
FFFFC0
FFFFC0
0001C0
0001C0
01CE00
01CE00
01FE00
01F800
01F800
01C000
01C000
07C000
070000
070000
380000
380000
380000
000000
000000
ENDCHAR
STARTCHAR 30a3
ENCODING 12451
SWIDTH 2400 0
DWIDTH 20 0
BBX 20 20 0 0
BITMAP
000000
000000
000000
000000
000000
000FC0
000FC0
003FC0
003800
003800
07F800
07F800
FFF800
F83800
F83800
003800
003800
003800
000000
000000
ENDCHAR
STARTCHAR 30a4
ENCODING 12452
SWIDTH 2400 0
DWIDTH 20 0
BBX 20 20 0 0
BITMAP
0001C0
0001C0
000FC0
000E00
000E00
01F800
01F800
FFF800
FF3800
FF3800
003800
003800
003800
003800
003800
003800
003800
003800
000000
000000
ENDCHAR
STARTCHAR 30a5
ENCODING 12453
SWIDTH 2400 0
DWIDTH 20 0
BBX 20 20 0 0
BITMAP
000000
000000
000000
000000
000000
01C000
01C000
FFFFC0
FFFFC0
FFFFC0
E001C0
E001C0
E00FC0
000E00
000E00
07F800
07F800
07F800
000000
000000
ENDCHAR
STARTCHAR 30a6
ENCODING 12454
SWIDTH 2400 0
DWIDTH 20 0
BBX 20 20 0 0
BITMAP
01C000
01C000
FFFFC0
FFFFC0
FFFFC0
E001C0
E001C0
E001C0
E001C0
E001C0
0001C0
0001C0
003FC0
003E00
003E00
07C000
07C000
07C000
000000
000000
ENDCHAR
STARTCHAR 30a7
ENCODING 12455
SWIDTH 2400 0
DWIDTH 20 0
BBX 20 20 0 0
BITMAP
000000
000000
000000
000000
000000
000000
000000
3FFE00
3FFE00
3FFE00
01C000
01C000
01C000
01C000
01C000
FFFFC0
FFFFC0
FFFFC0
000000
000000
ENDCHAR
STARTCHAR 30a8
ENCODING 12456
SWIDTH 2400 0
DWIDTH 20 0
BBX 20 20 0 0
BITMAP
000000
000000
FFFFC0
FFFFC0
FFFFC0
01C000
01C000
01C000
01C000
01C000
01C000
01C000
01C000
01C000
01C000
FFFFC0
FFFFC0
FFFFC0
000000
000000
ENDCHAR
STARTCHAR 30a9
ENCODING 12457
SWIDTH 2400 0
DWIDTH 20 0
BBX 20 20 0 0
BITMAP
000000
000000
000000
000000
000000
003800
003800
FFFFC0
FFFFC0
FFFFC0
01F800
01F800
07F800
073800
073800
F83800
F83800
F83800
000000
000000
ENDCHAR
STARTCHAR 30aa
ENCODING 12458
SWIDTH 2400 0
DWIDTH 20 0
BBX 20 20 0 0
BITMAP
003800
003800
FFFFC0
FFFFC0
FFFFC0
003800
003800
01F800
01F800
01F800
073800
073800
3F3800
383800
383800
E03800
E03800
E03800
000000
000000
ENDCHAR
STARTCHAR 30ab
ENCODING 12459
SWIDTH 2400 0
DWIDTH 20 0
BBX 20 20 0 0
BITMAP
070000
070000
FFFFC0
FFFFC0
FFFFC0
0701C0
0701C0
0701C0
0701C0
0701C0
0701C0
0701C0
3F01C0
3801C0
3801C0
E00E00
E00E00
E00E00
000000
000000
ENDCHAR
STARTCHAR 30ad
ENCODING 12461
SWIDTH 2400 0
DWIDTH 20 0
BBX 20 20 0 0
BITMAP
01C000
01C000
FFFFC0
FFFFC0
FFFFC0
01C000
01C000
FFFFC0
FFFFC0
FFFFC0
01C000
01C000
01C000
01C000
01C000
01C000
01C000
01C000
000000
000000
ENDCHAR
STARTCHAR 30af
ENCODING 12463
SWIDTH 2400 0
DWIDTH 20 0
BBX 20 20 0 0
BITMAP
000000
000000
3FFFC0
3FFFC0
3FFFC0
3801C0
3801C0
F801C0
E001C0
E001C0
0001C0
0001C0
000FC0
000E00
000E00
01F800
01F800
01F800
000000
000000
ENDCHAR
STARTCHAR 30b1
ENCODING 12465
SWIDTH 2400 0
DWIDTH 20 0
BBX 20 20 0 0
BITMAP
380000
380000
3FFFC0
3FFFC0
3FFFC0
380E00
380E00
F80E00
E00E00
E00E00
000E00
000E00
003E00
003800
003800
07C000
07C000
07C000
000000
000000
ENDCHAR
STARTCHAR 30b3
ENCODING 12467
SWIDTH 2400 0
DWIDTH 20 0
BBX 20 20 0 0
BITMAP
000000
000000
FFFFC0
FFFFC0
FFFFC0
0001C0
0001C0
0001C0
0001C0
0001C0
0001C0
0001C0
0001C0
0001C0
0001C0
FFFFC0
FFFFC0
FFFFC0
000000
000000
ENDCHAR
STARTCHAR 30b5
ENCODING 12469
SWIDTH 2400 0
DWIDTH 20 0
BBX 20 20 0 0
BITMAP
380E00
380E00
FFFFC0
FFFFC0
FFFFC0
380E00
380E00
380E00
380E00
380E00
000E00
000E00
003E00
003800
003800
07C000
07C000
07C000
000000
000000
ENDCHAR
STARTCHAR 30b7
ENCODING 12471
SWIDTH 2400 0
DWIDTH 20 0
BBX 20 20 0 0
BITMAP
000000
000000
3FC000
3FC000
3FC000
000000
000000
FF01C0
FF01C0
FF01C0
0001C0
0001C0
000FC0
000E00
000E00
FFF800
FFF800
FFF800
000000
000000
ENDCHAR
STARTCHAR 30b9
ENCODING 12473
SWIDTH 2400 0
DWIDTH 20 0
BBX 20 20 0 0
BITMAP
000000
000000
FFFFC0
FFFFC0
FFFFC0
000E00
000E00
003E00
003800
003800
01F800
01F800
07FE00
070E00
070E00
F801C0
F801C0
F801C0
000000
000000
ENDCHAR
STARTCHAR 30bb
ENCODING 12475
SWIDTH 2400 0
DWIDTH 20 0
BBX 20 20 0 0
BITMAP
380000
380000
FFFFC0
FFFFC0
FFFFC0
3801C0
3801C0
380FC0
380E00
380E00
383800
383800
383800
380000
380000
07FE00
07FE00
07FE00
000000
000000
ENDCHAR
STARTCHAR 30bd
ENCODING 12477
SWIDTH 2400 0
DWIDTH 20 0
BBX 20 20 0 0
BITMAP
000000
000000
E001C0
E001C0
E001C0
3801C0
3801C0
3F01C0
0701C0
0701C0
000E00
000E00
003E00
003800
003800
3FC000
3FC000
3FC000
000000
000000
ENDCHAR
STARTCHAR 30bf
ENCODING 12479
SWIDTH 2400 0
DWIDTH 20 0
BBX 20 20 0 0
BITMAP
000000
000000
3FFFC0
3FFFC0
3FFFC0
3801C0
3801C0
3FFFC0
3FFFC0
3FFFC0
E001C0
E001C0
E00FC0
000E00
000E00
01F800
01F800
01F800
000000
000000
ENDCHAR
STARTCHAR 30c1
ENCODING 12481
SWIDTH 2400 0
DWIDTH 20 0
BBX 20 20 0 0
BITMAP
000E00
000E00
3FFE00
3FF800
3FF800
003800
003800
FFFFC0
FFFFC0
FFFFC0
003800
003800
01F800
01C000
01C000
3F0000
3F0000
3F0000
000000
000000
ENDCHAR
STARTCHAR 30c3
ENCODING 12483
SWIDTH 2400 0
DWIDTH 20 0
BBX 20 20 0 0
BITMAP
000000
000000
000000
000000
000000
000000
000000
E701C0
E701C0
E701C0
E701C0
E701C0
E70FC0
000E00
000E00
3FF800
3FF800
3FF800
000000
000000
ENDCHAR
STARTCHAR 30c4
ENCODING 12484
SWIDTH 2400 0
DWIDTH 20 0
BBX 20 20 0 0
BITMAP
000000
000000
E701C0
E701C0
E701C0
E701C0
E701C0
E701C0
E701C0
E701C0
0001C0
0001C0
000FC0
000E00
000E00
3FF800
3FF800
3FF800
000000
000000
ENDCHAR
STARTCHAR 30c6
ENCODING 12486
SWIDTH 2400 0
DWIDTH 20 0
BBX 20 20 0 0
BITMAP
3FFE00
3FFE00
3FFE00
000000
000000
FFFFC0
FFFFC0
FFFFC0
003800
003800
003800
003800
01F800
01C000
01C000
3F0000
3F0000
3F0000
000000
000000
ENDCHAR
STARTCHAR 30c8
ENCODING 12488
SWIDTH 2400 0
DWIDTH 20 0
BBX 20 20 0 0
BITMAP
070000
070000
070000
070000
070000
070000
070000
07F800
07F800
07F800
070FC0
070FC0
070FC0
070000
070000
070000
070000
070000
000000
000000
ENDCHAR
STARTCHAR 30ca
ENCODING 12490
SWIDTH 2400 0
DWIDTH 20 0
BBX 20 20 0 0
BITMAP
003800
003800
003800
003800
003800
FFFFC0
FFFFC0
FFFFC0
003800
003800
003800
003800
01F800
01C000
01C000
3F0000
3F0000
3F0000
000000
000000
ENDCHAR
STARTCHAR 30cb
ENCODING 12491
SWIDTH 2400 0
DWIDTH 20 0
BBX 20 20 0 0
BITMAP
000000
000000
3FFE00
3FFE00
3FFE00
000000
000000
000000
000000
000000
000000
000000
000000
000000
000000
FFFFC0
FFFFC0
FFFFC0
000000
000000
ENDCHAR
STARTCHAR 30cc
ENCODING 12492
SWIDTH 2400 0
DWIDTH 20 0
BBX 20 20 0 0
BITMAP
000000
000000
FFFFC0
FFFFC0
FFFFC0
0001C0
0001C0
0701C0
0701C0
0701C0
01CE00
01CE00
01FE00
003800
003800
3FCE00
3FCE00
3FCE00
000000
000000
ENDCHAR
STARTCHAR 30cd
ENCODING 12493
SWIDTH 2400 0
DWIDTH 20 0
BBX 20 20 0 0
BITMAP
01C000
01C000
FFFFC0
FFFFC0
FFFFC0
000E00
000E00
003E00
003800
003800
07CE00
07CE00
FFCFC0
F9C1C0
F9C1C0
01C000
01C000
01C000
000000
000000
ENDCHAR
STARTCHAR 30ce
ENCODING 12494
SWIDTH 2400 0
DWIDTH 20 0
BBX 20 20 0 0
BITMAP
000E00
000E00
000E00
000E00
000E00
000E00
000E00
000E00
000E00
000E00
000E00
000E00
003E00
003800
003800
07C000
07C000
07C000
000000
000000
ENDCHAR
STARTCHAR 30cf
ENCODING 12495
SWIDTH 2400 0
DWIDTH 20 0
BBX 20 20 0 0
BITMAP
01F800
01F800
01FE00
000E00
000E00
3801C0
3801C0
3801C0
3801C0
3801C0
3801C0
3801C0
F801C0
E001C0
E001C0
000E00
000E00
000E00
000000
000000
ENDCHAR
STARTCHAR 30d2
ENCODING 12498
SWIDTH 2400 0
DWIDTH 20 0
BBX 20 20 0 0
BITMAP
E00000
E00000
E00000
E00000
E00000
FFFE00
FFFE00
FFFE00
E00000
E00000
E00000
E00000
E00000
E00000
E00000
3FFE00
3FFE00
3FFE00
000000
000000
ENDCHAR
STARTCHAR 30d5
ENCODING 12501
SWIDTH 2400 0
DWIDTH 20 0
BBX 20 20 0 0
BITMAP
000000
000000
FFFFC0
FFFFC0
FFFFC0
0001C0
0001C0
0001C0
0001C0
0001C0
0001C0
0001C0
000FC0
000E00
000E00
3FF800
3FF800
3FF800
000000
000000
ENDCHAR
STARTCHAR 30d8
ENCODING 12504
SWIDTH 2400 0
DWIDTH 20 0
BBX 20 20 0 0
BITMAP
000000
000000
070000
070000
070000
39C000
39C000
39F800
383800
383800
E00E00
E00E00
E00FC0
E001C0
E001C0
0001C0
0001C0
0001C0
000000
000000
ENDCHAR
STARTCHAR 30db
ENCODING 12507
SWIDTH 2400 0
DWIDTH 20 0
BBX 20 20 0 0
BITMAP
01C000
01C000
FFFFC0
FFFFC0
FFFFC0
01C000
01C000
01C000
01C000
01C000
39CE00
39CE00
F9CFC0
E1C1C0
E1C1C0
E1C1C0
E1C1C0
E1C1C0
000000
000000
ENDCHAR
STARTCHAR 30de
ENCODING 12510
SWIDTH 2400 0
DWIDTH 20 0
BBX 20 20 0 0
BITMAP
000000
000000
FFFFC0
FFFFC0
FFFFC0
0001C0
0001C0
0001C0
0001C0
0001C0
073E00
073E00
07FE00
01C000
01C000
003800
003800
003800
000000
000000
ENDCHAR
STARTCHAR 30df
ENCODING 12511
SWIDTH 2400 0
DWIDTH 20 0
BBX 20 20 0 0
BITMAP
07F800
07F800
07FFC0
000FC0
000FC0
3FC000
3FC000
3FFFC0
003FC0
003FC0
000000
000000
FFC000
FFC000
FFC000
003FC0
003FC0
003FC0
000000
000000
ENDCHAR
STARTCHAR 30e0
ENCODING 12512
SWIDTH 2400 0
DWIDTH 20 0
BBX 20 20 0 0
BITMAP
000000
000000
01C000
01C000
01C000
01C000
01C000
07C1C0
0701C0
0701C0
3801C0
3801C0
FFFFC0
FFFFC0
FFFFC0
0001C0
0001C0
0001C0
000000
000000
ENDCHAR
STARTCHAR 30e1
ENCODING 12513
SWIDTH 2400 0
DWIDTH 20 0
BBX 20 20 0 0
BITMAP
000000
000000
000E00
000E00
000E00
380E00
380E00
3F3E00
073800
073800
01C000
01C000
07F800
073800
073800
F80E00
F80E00
F80E00
000000
000000
ENDCHAR
STARTCHAR 30e2
ENCODING 12514
SWIDTH 2400 0
DWIDTH 20 0
BBX 20 20 0 0
BITMAP
000000
000000
FFFFC0
FFFFC0
FFFFC0
380000
380000
FFFFC0
FFFFC0
FFFFC0
380000
380000
380000
380000
380000
07FFC0
07FFC0
07FFC0
000000
000000
ENDCHAR
STARTCHAR 30e3
ENCODING 12515
SWIDTH 2400 0
DWIDTH 20 0
BBX 20 20 0 0
BITMAP
000000
000000
000000
000000
000000
380000
380000
FFFFC0
FFFFC0
FFFFC0
3801C0
3801C0
3F0FC0
070E00
070E00
070000
070000
070000
000000
000000
ENDCHAR
STARTCHAR 30e4
ENCODING 12516
SWIDTH 2400 0
DWIDTH 20 0
BBX 20 20 0 0
BITMAP
380000
380000
380000
380000
380000
FFFFC0
FFFFC0
FFFFC0
3801C0
3801C0
070E00
070E00
070E00
070000
070000
070000
070000
070000
000000
000000
ENDCHAR
STARTCHAR 30e5
ENCODING 12517
SWIDTH 2400 0
DWIDTH 20 0
BBX 20 20 0 0
BITMAP
000000
000000
000000
000000
000000
000000
000000
3FFE00
3FFE00
3FFE00
000E00
000E00
000E00
000E00
000E00
FFFFC0
FFFFC0
FFFFC0
000000
000000
ENDCHAR
STARTCHAR 30e6
ENCODING 12518
SWIDTH 2400 0
DWIDTH 20 0
BBX 20 20 0 0
BITMAP
000000
000000
3FF800
3FF800
3FF800
003800
003800
003800
003800
003800
003800
003800
003800
003800
003800
FFFFC0
FFFFC0
FFFFC0
000000
000000
ENDCHAR
STARTCHAR 30e7
ENCODING 12519
SWIDTH 2400 0
DWIDTH 20 0
BBX 20 20 0 0
BITMAP
000000
000000
000000
000000
000000
FFFFC0
FFFFC0
FFFFC0
0001C0
0001C0
FFFFC0
FFFFC0
FFFFC0
0001C0
0001C0
FFFFC0
FFFFC0
FFFFC0
000000
000000
ENDCHAR
STARTCHAR 30e8
ENCODING 12520
SWIDTH 2400 0
DWIDTH 20 0
BBX 20 20 0 0
BITMAP
000000
000000
FFFFC0
FFFFC0
FFFFC0
0001C0
0001C0
FFFFC0
FFFFC0
FFFFC0
0001C0
0001C0
0001C0
0001C0
0001C0
FFFFC0
FFFFC0
FFFFC0
000000
000000
ENDCHAR
STARTCHAR 30e9
ENCODING 12521
SWIDTH 2400 0
DWIDTH 20 0
BBX 20 20 0 0
BITMAP
FFFFC0
FFFFC0
FFFFC0
000000
000000
FFFFC0
FFFFC0
FFFFC0
0001C0
0001C0
0001C0
0001C0
000FC0
000E00
000E00
3FF800
3FF800
3FF800
000000
000000
ENDCHAR
STARTCHAR 30ea
ENCODING 12522
SWIDTH 2400 0
DWIDTH 20 0
BBX 20 20 0 0
BITMAP
380E00
380E00
380E00
380E00
380E00
380E00
380E00
380E00
380E00
380E00
000E00
000E00
003E00
003800
003800
3FC000
3FC000
3FC000
000000
000000
ENDCHAR
STARTCHAR 30eb
ENCODING 12523
SWIDTH 2400 0
DWIDTH 20 0
BBX 20 20 0 0
BITMAP
39C000
39C000
39C000
39C000
39C000
39C000
39C000
39C000
39C000
39C000
39C1C0
39C1C0
39C1C0
39C1C0
39C1C0
E1FE00
E1FE00
E1FE00
000000
000000
ENDCHAR
STARTCHAR 30ec
ENCODING 12524
SWIDTH 2400 0
DWIDTH 20 0
BBX 20 20 0 0
BITMAP
000000
000000
E00000
E00000
E00000
E00000
E00000
E001C0
E001C0
E001C0
E00E00
E00E00
E1FE00
E1F800
E1F800
FF0000
FF0000
FF0000
000000
000000
ENDCHAR
STARTCHAR 30ed
ENCODING 12525
SWIDTH 2400 0
DWIDTH 20 0
BBX 20 20 0 0
BITMAP
000000
000000
FFFFC0
FFFFC0
FFFFC0
E001C0
E001C0
E001C0
E001C0
E001C0
E001C0
E001C0
E001C0
E001C0
E001C0
FFFFC0
FFFFC0
FFFFC0
000000
000000
ENDCHAR
STARTCHAR 30ef
ENCODING 12527
SWIDTH 2400 0
DWIDTH 20 0
BBX 20 20 0 0
BITMAP
000000
000000
FFFFC0
FFFFC0
FFFFC0
E001C0
E001C0
E001C0
E001C0
E001C0
0001C0
0001C0
000FC0
000E00
000E00
01F800
01F800
01F800
000000
000000
ENDCHAR
STARTCHAR 30f2
ENCODING 12530
SWIDTH 2400 0
DWIDTH 20 0
BBX 20 20 0 0
BITMAP
FFFFC0
FFFFC0
FFFFC0
0001C0
0001C0
0001C0
0001C0
3FFFC0
3FFFC0
3FFFC0
0001C0
0001C0
000FC0
000E00
000E00
07F800
07F800
07F800
000000
000000
ENDCHAR
STARTCHAR 30f3
ENCODING 12531
SWIDTH 2400 0
DWIDTH 20 0
BBX 20 20 0 0
BITMAP
000000
000000
FF0000
FF0000
FF0000
000000
000000
0001C0
0001C0
0001C0
0001C0
0001C0
000FC0
000E00
000E00
FFF800
FFF800
FFF800
000000
000000
ENDCHAR
STARTCHAR 30fb
ENCODING 12539
SWIDTH 2400 0
DWIDTH 20 0
BBX 20 20 0 0
BITMAP
000000
000000
000000
000000
000000
000000
000000
07C000
07C000
07C000
3FF800
3FF800
3FF800
07C000
07C000
000000
000000
000000
000000
000000
ENDCHAR
STARTCHAR 30fc
ENCODING 12540
SWIDTH 2400 0
DWIDTH 20 0
BBX 20 20 0 0
BITMAP
000000
000000
000000
000000
000000
000000
000000
F80000
F80000
F80000
07FFC0
07FFC0
07FFC0
000000
000000
000000
000000
000000
000000
000000
ENDCHAR
STARTCHAR 4eba
ENCODING 20154
SWIDTH 2400 0
DWIDTH 20 0
BBX 20 20 0 0
BITMAP
07FE00
07FE00
07FE00
07FE00
07FE00
07FE00
07FE00
E7FE70
E1F870
E1F870
3FFFC0
3FFFC0
3FFFC0
01F800
01F800
07FE00
07FE00
FFFFF0
FF0FF0
FF0FF0
ENDCHAR
STARTCHAR 5012
ENCODING 20498
SWIDTH 2400 0
DWIDTH 20 0
BBX 20 20 0 0
BITMAP
E03800
E03800
E1F800
E1C000
E1C000
F9CFF0
F9CFF0
FFFFF0
3FFFF0
3FFFF0
3FFFF0
3FFFF0
FFFFF0
F9CFF0
F9CFF0
E1C000
E1C000
E1F800
E03800
E03800
ENDCHAR
STARTCHAR 516b
ENCODING 20843
SWIDTH 2400 0
DWIDTH 20 0
BBX 20 20 0 0
BITMAP
01C070
01C070
01F870
003870
003870
FF39F0
FF39F0
FFFFF0
FFFFC0
FFFFC0
FFFFC0
FFFFC0
FFFFF0
FF39F0
FF39F0
003870
003870
01F870
01C070
01C070
ENDCHAR
STARTCHAR 5186
ENCODING 20870
SWIDTH 2400 0
DWIDTH 20 0
BBX 20 20 0 0
BITMAP
FFFFC0
FFFFC0
FFFFC0
E1C1C0
E1C1C0
E1C1C0
E1C1C0
FFFFC0
FFFFC0
FFFFC0
E001C0
E001C0
E001C0
E001C0
E001C0
E00FC0
E00FC0
E00FC0
000000
000000
ENDCHAR
STARTCHAR 5206
ENCODING 20998
SWIDTH 2400 0
DWIDTH 20 0
BBX 20 20 0 0
BITMAP
01C000
01C000
07F800
073800
073800
380E00
380E00
FFFFC0
E7F9C0
E7F9C0
070E00
070E00
070E00
070E00
070E00
383800
383800
383800
000000
000000
ENDCHAR
STARTCHAR 53cd
ENCODING 21453
SWIDTH 2400 0
DWIDTH 20 0
BBX 20 20 0 0
BITMAP
E03800
E03800
E1F800
E1C000
E1C000
E70000
E70000
FF0000
F80000
F80000
F80000
F80000
FF3800
E73800
E73800
E1F800
E1F800
E7F800
E7F800
E7F800
ENDCHAR
STARTCHAR 571f
ENCODING 22303
SWIDTH 2400 0
DWIDTH 20 0
BBX 20 20 0 0
BITMAP
01C000
01C000
01C000
01C000
01C000
3FFE00
3FFE00
3FFE00
01C000
01C000
01C000
01C000
01C000
01C000
01C000
FFFFC0
FFFFC0
FFFFC0
000000
000000
ENDCHAR
STARTCHAR 5c04
ENCODING 23556
SWIDTH 2400 0
DWIDTH 20 0
BBX 20 20 0 0
BITMAP
E73800
E73800
E7F800
E7C000
E7C000
E7F800
E7F800
FFF800
F80000
F80000
F80000
F80000
FF0000
E70000
E70000
E1C000
E1C000
E1F800
E03800
E03800
ENDCHAR
STARTCHAR 5e74
ENCODING 24180
SWIDTH 2400 0
DWIDTH 20 0
BBX 20 20 0 0
BITMAP
380000
380000
3FFE00
3FFE00
3FFE00
E1C000
E1C000
FFFE00
3FFE00
3FFE00
39C000
39C000
FFFFC0
FFFFC0
FFFFC0
01C000
01C000
01C000
000000
000000
ENDCHAR
STARTCHAR 62bc
ENCODING 25276
SWIDTH 2400 0
DWIDTH 20 0
BBX 20 20 0 0
BITMAP
07F800
07F800
07F800
07F800
07F800
FFFFC0
FFFFC0
FFFFC0
3FFE00
3FFE00
07F800
07F800
07F800
01C000
01C000
FFFFC0
FFFFC0
FFFFC0
000000
000000
ENDCHAR
STARTCHAR 65e5
ENCODING 26085
SWIDTH 2400 0
DWIDTH 20 0
BBX 20 20 0 0
BITMAP
FFFFC0
FFFFC0
FFFFC0
E001C0
E001C0
E001C0
E001C0
FFFFC0
FFFFC0
FFFFC0
E001C0
E001C0
E001C0
E001C0
E001C0
FFFFC0
FFFFC0
FFFFC0
000000
000000
ENDCHAR
STARTCHAR 661f
ENCODING 26143
SWIDTH 2400 0
DWIDTH 20 0
BBX 20 20 0 0
BITMAP
000000
000000
0701F0
0701F0
0701F0
070E70
070E70
073E70
073870
073870
FFC070
FFC070
FFF870
073870
073870
070E70
070E70
070FF0
0701F0
0701F0
ENDCHAR
STARTCHAR 6642
ENCODING 26178
SWIDTH 2400 0
DWIDTH 20 0
BBX 20 20 0 0
BITMAP
003800
003800
FFFE00
FFFE00
FFFE00
E73800
E73800
FFFFC0
FFFFC0
FFFFC0
E70E00
E70E00
FFFFC0
FFFFC0
FFFFC0
01CE00
01CE00
01CE00
000000
000000
ENDCHAR
STARTCHAR 6708
ENCODING 26376
SWIDTH 2400 0
DWIDTH 20 0
BBX 20 20 0 0
BITMAP
3FFFC0
3FFFC0
3FFFC0
3801C0
3801C0
3FFFC0
3FFFC0
3FFFC0
3801C0
3801C0
3FFFC0
3FFFC0
3FFFC0
3801C0
3801C0
E001C0
E001C0
E001C0
000000
000000
ENDCHAR
STARTCHAR 6728
ENCODING 26408
SWIDTH 2400 0
DWIDTH 20 0
BBX 20 20 0 0
BITMAP
01C000
01C000
FFFFC0
FFFFC0
FFFFC0
01C000
01C000
07F800
07F800
07F800
39CE00
39CE00
39CE00
39CE00
39CE00
E1C1C0
E1C1C0
E1C1C0
000000
000000
ENDCHAR
STARTCHAR 672a
ENCODING 26410
SWIDTH 2400 0
DWIDTH 20 0
BBX 20 20 0 0
BITMAP
000000
000000
01F800
01F800
01F800
070E00
070E00
3FFFC0
3FFFC0
3FFFC0
FFFFF0
FFFFF0
FFFFF0
3FFFC0
3FFFC0
070E00
070E00
070E00
000000
000000
ENDCHAR
STARTCHAR 6a2a
ENCODING 27178
SWIDTH 2400 0
DWIDTH 20 0
BBX 20 20 0 0
BITMAP
FF0000
FF0000
FF0FF0
FF0FF0
FF0FF0
380FF0
380FF0
FFFFF0
E7F9C0
E7F9C0
E7F9C0
E7F9C0
FFFFF0
380FF0
380FF0
FF0FF0
FF0FF0
FF0FF0
FF0000
FF0000
ENDCHAR
STARTCHAR 6c34
ENCODING 27700
SWIDTH 2400 0
DWIDTH 20 0
BBX 20 20 0 0
BITMAP
01C000
01C000
FFC1C0
FFC1C0
FFC1C0
01CE00
01CE00
07FE00
07F800
07F800
39F800
39F800
F9FE00
E1CE00
E1CE00
E1C1C0
E1C1C0
E1C1C0
000000
000000
ENDCHAR
STARTCHAR 6c60
ENCODING 27744
SWIDTH 2400 0
DWIDTH 20 0
BBX 20 20 0 0
BITMAP
003800
003800
003800
003800
003800
07FFC0
07FFC0
07FFC0
000000
000000
000000
000000
07FFC0
07FFC0
07FFC0
003800
003800
003800
003800
003800
ENDCHAR
STARTCHAR 706b
ENCODING 28779
SWIDTH 2400 0
DWIDTH 20 0
BBX 20 20 0 0
BITMAP
01C000
01C000
E1C1C0
E1C1C0
E1C1C0
E1C1C0
E1C1C0
E1C1C0
01C000
01C000
073800
073800
3F3E00
380E00
380E00
E001C0
E001C0
E001C0
000000
000000
ENDCHAR
STARTCHAR 751f
ENCODING 29983
SWIDTH 2400 0
DWIDTH 20 0
BBX 20 20 0 0
BITMAP
01C000
01C000
39C000
39C000
39C000
FFFFC0
FFFFC0
FFFFC0
E1C000
E1C000
3FFE00
3FFE00
3FFE00
01C000
01C000
FFFFC0
FFFFC0
FFFFC0
000000
000000
ENDCHAR
STARTCHAR 79d2
ENCODING 31186
SWIDTH 2400 0
DWIDTH 20 0
BBX 20 20 0 0
BITMAP
3FC000
3FC000
3FCE00
070E00
070E00
FFFFC0
FFFFC0
FFFFC0
073FC0
073FC0
3FCFC0
3FCFC0
FFCFC0
E70E00
E70E00
073800
073800
073800
000000
000000
ENDCHAR
STARTCHAR 86c7
ENCODING 34503
SWIDTH 2400 0
DWIDTH 20 0
BBX 20 20 0 0
BITMAP
FF0000
FF0000
FF0000
FF0000
FF0000
FF0000
FF0000
FF0E00
070E00
070E00
3839C0
3839C0
F839C0
E039C0
E039C0
E1C1C0
E1C1C0
FFC1F0
3F0070
3F0070
ENDCHAR
STARTCHAR 885b
ENCODING 34907
SWIDTH 2400 0
DWIDTH 20 0
BBX 20 20 0 0
BITMAP
000000
000000
F80E00
F80E00
F80E00
E70E00
E70E00
E7CE00
E1CE00
E1CE00
E03FF0
E03FF0
E1FFF0
E1CE00
E1CE00
E70E00
E70E00
FF0E00
F80E00
F80E00
ENDCHAR
STARTCHAR 8eca
ENCODING 36554
SWIDTH 2400 0
DWIDTH 20 0
BBX 20 20 0 0
BITMAP
3F0FC0
3F0FC0
3FFFC0
3FFFC0
3FFFC0
3F0FC0
3F0FC0
3FFFC0
01F800
01F800
01F800
01F800
F9F9F0
F9F9F0
F9F9F0
FF0FF0
FF0FF0
FFFFF0
F9F9F0
F9F9F0
ENDCHAR
STARTCHAR 9006
ENCODING 36870
SWIDTH 2400 0
DWIDTH 20 0
BBX 20 20 0 0
BITMAP
FF0FF0
FF0FF0
FFFFF0
07FE00
07FE00
01F800
01F800
3FFFC0
3FFFC0
3FFFC0
E1F870
E1F870
E7FE70
07FE00
07FE00
07FE00
07FE00
07FE00
07FE00
07FE00
ENDCHAR
STARTCHAR 91d1
ENCODING 37329
SWIDTH 2400 0
DWIDTH 20 0
BBX 20 20 0 0
BITMAP
01C000
01C000
07F800
073800
073800
3FFE00
3FFE00
FFFFC0
E7F9C0
E7F9C0
39CE00
39CE00
3FFE00
07F800
07F800
FFFFC0
FFFFC0
FFFFC0
000000
000000
ENDCHAR
STARTCHAR 96fb
ENCODING 38651
SWIDTH 2400 0
DWIDTH 20 0
BBX 20 20 0 0
BITMAP
000000
000000
000000
000000
000000
070E00
070E00
070E00
070E00
070E00
FF0FF0
FF0FF0
FF0FF0
070E00
070E00
070E00
070E00
070E00
000000
000000
ENDCHAR
STARTCHAR ff01
ENCODING 65281
SWIDTH 2400 0
DWIDTH 20 0
BBX 20 20 0 0
BITMAP
01C000
01C000
07C000
070000
070000
070000
070000
07C000
01C000
01C000
003800
003800
003E00
000E00
000E00
000E00
000E00
003E00
003800
003800
ENDCHAR
STARTCHAR ff0c
ENCODING 65292
SWIDTH 2400 0
DWIDTH 20 0
BBX 20 20 0 0
BITMAP
000000
000000
000000
000000
000000
000000
000000
000000
000000
000000
E00000
E00000
F80000
380000
380000
070000
070000
070000
000000
000000
ENDCHAR
STARTCHAR ff0e
ENCODING 65294
SWIDTH 2400 0
DWIDTH 20 0
BBX 20 20 0 0
BITMAP
000000
000000
000000
000000
000000
000000
000000
01F800
01F800
01F800
01F800
01F800
01F800
000000
000000
000000
000000
000000
000000
000000
ENDCHAR
STARTCHAR ff0f
ENCODING 65295
SWIDTH 2400 0
DWIDTH 20 0
BBX 20 20 0 0
BITMAP
000070
000070
0001F0
0001C0
0001C0
000E00
000E00
003E00
003800
003800
01C000
01C000
07C000
070000
070000
380000
380000
F80000
E00000
E00000
ENDCHAR
STARTCHAR ff11
ENCODING 65297
SWIDTH 2400 0
DWIDTH 20 0
BBX 20 20 0 0
BITMAP
000000
000000
000000
000000
000000
000000
000000
000000
000000
000000
000000
000000
000000
000000
000000
FFFFF0
FFFFF0
FFFFF0
000000
000000
ENDCHAR
STARTCHAR ff12
ENCODING 65298
SWIDTH 2400 0
DWIDTH 20 0
BBX 20 20 0 0
BITMAP
000000
000000
000000
000000
000000
000000
000000
000000
000000
000000
000000
000000
FFFFF0
FFFFF0
FFFFF0
000000
000000
000000
000000
000000
ENDCHAR
STARTCHAR ff13
ENCODING 65299
SWIDTH 2400 0
DWIDTH 20 0
BBX 20 20 0 0
BITMAP
000000
000000
000000
000000
000000
000000
000000
FFFFF0
FFFFF0
FFFFF0
000000
000000
000000
000000
000000
000000
000000
000000
000000
000000
ENDCHAR
STARTCHAR ff14
ENCODING 65300
SWIDTH 2400 0
DWIDTH 20 0
BBX 20 20 0 0
BITMAP
000000
000000
000000
000000
000000
FFFFF0
FFFFF0
FFFFF0
000000
000000
000000
000000
000000
000000
000000
000000
000000
000000
000000
000000
ENDCHAR
STARTCHAR ff15
ENCODING 65301
SWIDTH 2400 0
DWIDTH 20 0
BBX 20 20 0 0
BITMAP
000000
000000
FFFFF0
FFFFF0
FFFFF0
000000
000000
000000
000000
000000
000000
000000
000000
000000
000000
000000
000000
000000
000000
000000
ENDCHAR
STARTCHAR ff1c
ENCODING 65308
SWIDTH 2400 0
DWIDTH 20 0
BBX 20 20 0 0
BITMAP
000000
000000
3FC000
3FC000
3FC000
E03800
E03800
F83E00
380E00
380E00
0701F0
0701F0
0701F0
070000
070000
380000
380000
F80000
E00000
E00000
ENDCHAR
STARTCHAR ff1d
ENCODING 65309
SWIDTH 2400 0
DWIDTH 20 0
BBX 20 20 0 0
BITMAP
000000
000000
FFFFF0
FFFFF0
FFFFF0
000000
000000
E00070
E00070
E00070
3801C0
3801C0
3801C0
3801C0
3801C0
E00070
E00070
E00070
000000
000000
ENDCHAR
STARTCHAR ff1e
ENCODING 65310
SWIDTH 2400 0
DWIDTH 20 0
BBX 20 20 0 0
BITMAP
000000
000000
003FC0
003FC0
003FC0
01C070
01C070
07C1F0
0701C0
0701C0
F80E00
F80E00
F80E00
000E00
000E00
0001C0
0001C0
0001F0
000070
000070
ENDCHAR
STARTCHAR ff39
ENCODING 65337
SWIDTH 2400 0
DWIDTH 20 0
BBX 20 20 0 0
BITMAP
E00000
E00000
F80000
380000
380000
070000
070000
07C000
01C000
01C000
01FFF0
01FFF0
07FFF0
070000
070000
380000
380000
F80000
E00000
E00000
ENDCHAR
STARTCHAR ff3c
ENCODING 65340
SWIDTH 2400 0
DWIDTH 20 0
BBX 20 20 0 0
BITMAP
E00000
E00000
F80000
380000
380000
070000
070000
07C000
01C000
01C000
003800
003800
003E00
000E00
000E00
0001C0
0001C0
0001F0
000070
000070
ENDCHAR
STARTCHAR ffe1
ENCODING 65505
SWIDTH 2400 0
DWIDTH 20 0
BBX 20 20 0 0
BITMAP
01FE00
01FE00
07FE00
070000
070000
070000
070000
3FF800
3FF800
3FF800
070000
070000
070000
070000
070000
FFFE00
FFFE00
FFFE00
000000
000000
ENDCHAR
STARTCHAR ffe3
ENCODING 65507
SWIDTH 2400 0
DWIDTH 20 0
BBX 20 20 0 0
BITMAP
FFFFF0
FFFFF0
FFFFF0
000000
000000
000000
000000
000000
000000
000000
000000
000000
000000
000000
000000
000000
000000
000000
000000
000000
ENDCHAR
STARTCHAR ffe5
ENCODING 65509
SWIDTH 2400 0
DWIDTH 20 0
BBX 20 20 0 0
BITMAP
E001C0
E001C0
F80FC0
380E00
380E00
073800
073800
FFFFC0
FFFFC0
FFFFC0
01C000
01C000
FFFFC0
FFFFC0
FFFFC0
01C000
01C000
01C000
000000
000000
ENDCHAR
ENDFONT
